<svg width="291" height="191" viewBox="0 0 291 191" fill="none" xmlns="http://www.w3.org/2000/svg">
<path d="M0.5 15C0.5 6.99187 6.99187 0.5 15 0.5H276C284.008 0.5 290.5 6.99187 290.5 15V165C290.5 173.008 284.008 179.5 276 179.5H15C6.99187 179.5 0.5 173.008 0.5 165V15Z" fill="white" stroke="#666666"/>
<path d="M38.6919 35H58.7945V41.2176L70.9999 80.8449L55.7422 84L43.0887 52.4467L38.6919 35Z" fill="#0E6EFF"/>
<path d="M47.308 35H27.2053V41.2176L15 80.8449L30.2557 84L42.9111 52.4467L47.308 35Z" fill="#0E6EFF"/>
<rect x="9.5" y="24.5" width="67" height="67" rx="14.5" stroke="#666666"/>
<path d="M250.5 35C250.5 40.6 254.833 42.6667 257 43V87C255.8 87.8 252.167 85.6667 250.5 84.5C250.5 85.7 246.833 85.6667 245 85.5V69C245 65 247 55.3333 248 51C248.4 46.2 246.5 39.3333 245.5 36.5L250.5 35Z" fill="#0E6EFF"/>
<path d="M263.5 35C263.5 40.6 259.167 42.6667 257 43V87C258.2 87.8 261.833 85.6667 263.5 84.5C263.5 85.7 267.167 85.6667 269 85.5V69C269 65 267 55.3333 266 51C265.6 46.2 267.5 39.3333 268.5 36.5L263.5 35Z" fill="#0E6EFF"/>
<path d="M232.867 119C231.578 121.567 229 126.81 229 127.25C240.931 129.89 250.543 144.85 253.857 152H262.143C265.236 140.56 280.003 130.367 287 126.7L283.133 119C263.69 125.16 241.521 121.567 232.867 119Z" fill="#0E6EFF"/>
<path d="M43 119.147V138.147L42 138.647L39 152.147C30.2 156.147 22.6667 153.481 20 151.647L23.5 116.647C25.8659 118.998 37.977 118.751 43 119.147Z" fill="#0E6EFF"/>
<path d="M43 119.147V138.147L44 138.647L47 152.147C55.8 156.147 63.3333 153.481 66 151.647L62.5 116.647C60.1341 118.998 48.023 118.751 43 119.147Z" fill="#0E6EFF"/>
<path d="M24 117.647C38.2111 114.008 46.5648 114.228 62 117.648" stroke="#0E6EFF"/>
<path d="M104.652 160L104 115.804H119V121.569L117.696 122.049L113.783 160H104.652Z" fill="#0E6EFF"/>
<path d="M104 113.882L104.652 111H111.174V113.882H104Z" fill="#0E6EFF"/>
<path d="M119 111V113.882H113.783V111H119Z" fill="#0E6EFF"/>
<path d="M133.348 160L134 115.804H119V121.569L120.304 122.049L124.217 160H133.348Z" fill="#0E6EFF"/>
<path d="M134 113.882L133.348 111H126.826V113.882H134Z" fill="#0E6EFF"/>
<path d="M119 111V113.882H124.217V111H119Z" fill="#0E6EFF"/>
<path d="M189.057 41V83.9807C186.669 84.4582 185.276 83.3837 184.878 82.7868L183.087 78.6081L181.296 81.5929C176.998 84.4582 173.536 82.3888 172.342 80.9959L172.939 70.2507L169.357 80.9959C163.627 83.3837 161.398 79.603 161 77.4142L172.342 46.9695V41H189.057Z" fill="#0E6EFF"/>
<path d="M189.057 41V83.9807C191.445 84.4582 192.838 83.3837 193.236 82.7868L195.026 78.6081L196.817 81.5929C201.115 84.4582 204.578 82.3888 205.772 80.9959L205.175 70.2507L208.756 80.9959C214.487 83.3837 216.716 79.603 217.114 77.4142L205.772 46.9695V41H189.057Z" fill="#0E6EFF"/>
<path d="M118.5 62V52H115.5L115 45.5L114.5 35H111.5V45.5L110.5 52H108.5L107 86H115.5L118.5 62Z" fill="#0E6EFF"/>
<path d="M112.5 54C112.077 56.623 111.407 57.8178 109.5 59.5" stroke="white"/>
<path d="M118.5 62V52H121.5L122 45.5L122.5 35H125.5V45.5L126.5 52H128.5L130 86H121.5L118.5 62Z" fill="#0E6EFF"/>
<path d="M124.5 54C124.923 56.623 125.593 57.8178 127.5 59.5" stroke="white"/>
<path d="M176.96 160L175 112.307C180.722 113.362 183.871 113.66 189.373 113.613V130.6H188.067L185.453 160H176.96Z" fill="#0E6EFF"/>
<path d="M188.128 115.573C186.604 115.791 183.686 116.88 184.208 119.493C185.297 119.276 187.606 118.187 188.128 115.573Z" stroke="white"/>
<path d="M189.374 114.92C188.015 117.76 187.541 119.459 187.414 122.76" stroke="white"/>
<path d="M175 112.307C181.533 111 182.187 111 189.373 111" stroke="#0E6EFF"/>
<path d="M201.787 160L203.747 112.307C198.025 113.362 194.876 113.66 189.373 113.613V130.6H190.68L193.293 160H201.787Z" fill="#0E6EFF"/>
<path d="M190.618 115.573C192.143 115.791 195.061 116.88 194.538 119.493C193.449 119.276 191.141 118.187 190.618 115.573Z" stroke="white"/>
<path d="M189.373 114.92C190.732 117.76 191.206 119.459 191.333 122.76" stroke="white"/>
<path d="M203.747 112.307C197.213 111 196.56 111 189.373 111" stroke="#0E6EFF"/>
<path d="M44 188.45L56 176.45L42.2442 175.95L31 175.45L44 188.45Z" fill="white"/>
<path d="M34.9999 179.95L44 189.005L53 179.95" stroke="#666666"/>
</svg>
