<svg width="375" height="725" viewBox="0 0 375 725" fill="none" xmlns="http://www.w3.org/2000/svg">
<g clip-path="url(#clip0)">
<rect width="375" height="725" fill="white"/>
<rect y="526" width="375" height="199" fill="white"/>
<path d="M34.2461 549.015C34.2461 550.269 34.0352 551.364 33.6133 552.302C33.1914 553.233 32.5938 553.945 31.8203 554.438C31.0469 554.93 30.1445 555.176 29.1133 555.176C28.1055 555.176 27.2119 554.93 26.4326 554.438C25.6533 553.939 25.0469 553.233 24.6133 552.319C24.1855 551.399 23.9658 550.336 23.9541 549.129V548.206C23.9541 546.976 24.168 545.889 24.5957 544.945C25.0234 544.002 25.627 543.281 26.4062 542.783C27.1914 542.279 28.0879 542.027 29.0957 542.027C30.1211 542.027 31.0234 542.276 31.8027 542.774C32.5879 543.267 33.1914 543.984 33.6133 544.928C34.0352 545.865 34.2461 546.958 34.2461 548.206V549.015ZM32.5674 548.188C32.5674 546.671 32.2627 545.508 31.6533 544.699C31.0439 543.885 30.1914 543.478 29.0957 543.478C28.0293 543.478 27.1885 543.885 26.5732 544.699C25.9639 545.508 25.6504 546.633 25.6328 548.074V549.015C25.6328 550.485 25.9404 551.643 26.5557 552.486C27.1768 553.324 28.0293 553.743 29.1133 553.743C30.2031 553.743 31.0469 553.348 31.6445 552.557C32.2422 551.76 32.5498 550.62 32.5674 549.138V548.188ZM38.0605 545.49L38.1133 546.686C38.8398 545.771 39.7891 545.314 40.9609 545.314C42.9707 545.314 43.9844 546.448 44.002 548.716V555H42.376V548.707C42.3701 548.021 42.2119 547.515 41.9014 547.187C41.5967 546.858 41.1191 546.694 40.4688 546.694C39.9414 546.694 39.4785 546.835 39.0801 547.116C38.6816 547.397 38.3711 547.767 38.1484 548.224V555H36.5225V545.49H38.0605ZM56.79 555C56.6963 554.812 56.6201 554.479 56.5615 553.998C55.8057 554.783 54.9033 555.176 53.8545 555.176C52.917 555.176 52.1465 554.912 51.543 554.385C50.9453 553.852 50.6465 553.178 50.6465 552.363C50.6465 551.373 51.0215 550.605 51.7715 550.061C52.5273 549.51 53.5879 549.234 54.9531 549.234H56.5352V548.487C56.5352 547.919 56.3652 547.468 56.0254 547.134C55.6855 546.794 55.1846 546.624 54.5225 546.624C53.9424 546.624 53.4561 546.771 53.0635 547.063C52.6709 547.356 52.4746 547.711 52.4746 548.127H50.8398C50.8398 547.652 51.0068 547.195 51.3408 546.756C51.6807 546.311 52.1377 545.959 52.7119 545.701C53.292 545.443 53.9277 545.314 54.6191 545.314C55.7148 545.314 56.5732 545.59 57.1943 546.141C57.8154 546.686 58.1377 547.438 58.1611 548.399V552.776C58.1611 553.649 58.2725 554.344 58.4951 554.859V555H56.79ZM54.0918 553.761C54.6016 553.761 55.085 553.629 55.542 553.365C55.999 553.102 56.3301 552.759 56.5352 552.337V550.386H55.2607C53.2686 550.386 52.2725 550.969 52.2725 552.135C52.2725 552.645 52.4424 553.043 52.7822 553.33C53.1221 553.617 53.5586 553.761 54.0918 553.761ZM70.7119 552.478C70.7119 552.038 70.5449 551.698 70.2109 551.458C69.8828 551.212 69.3057 551.001 68.4795 550.825C67.6592 550.649 67.0059 550.438 66.5195 550.192C66.0391 549.946 65.6816 549.653 65.4473 549.313C65.2188 548.974 65.1045 548.569 65.1045 548.101C65.1045 547.321 65.4326 546.662 66.0889 546.123C66.751 545.584 67.5947 545.314 68.6201 545.314C69.6982 545.314 70.5713 545.593 71.2393 546.149C71.9131 546.706 72.25 547.418 72.25 548.285H70.6152C70.6152 547.84 70.4248 547.456 70.0439 547.134C69.6689 546.812 69.1943 546.65 68.6201 546.65C68.0283 546.65 67.5654 546.779 67.2314 547.037C66.8975 547.295 66.7305 547.632 66.7305 548.048C66.7305 548.44 66.8857 548.736 67.1963 548.936C67.5068 549.135 68.0664 549.325 68.875 549.507C69.6895 549.688 70.3486 549.905 70.8525 550.157C71.3564 550.409 71.7285 550.714 71.9688 551.071C72.2148 551.423 72.3379 551.854 72.3379 552.363C72.3379 553.213 71.998 553.896 71.3184 554.411C70.6387 554.921 69.7568 555.176 68.6729 555.176C67.9111 555.176 67.2373 555.041 66.6514 554.771C66.0654 554.502 65.6055 554.127 65.2715 553.646C64.9434 553.16 64.7793 552.636 64.7793 552.073H66.4053C66.4346 552.618 66.6514 553.052 67.0557 553.374C67.4658 553.69 68.0049 553.849 68.6729 553.849C69.2881 553.849 69.7803 553.726 70.1494 553.479C70.5244 553.228 70.7119 552.894 70.7119 552.478ZM78.2705 553.849C78.8506 553.849 79.3574 553.673 79.791 553.321C80.2246 552.97 80.4648 552.53 80.5117 552.003H82.0498C82.0205 552.548 81.833 553.066 81.4873 553.559C81.1416 554.051 80.6787 554.443 80.0986 554.736C79.5244 555.029 78.915 555.176 78.2705 555.176C76.9756 555.176 75.9443 554.745 75.1768 553.884C74.415 553.017 74.0342 551.833 74.0342 550.333V550.061C74.0342 549.135 74.2041 548.312 74.5439 547.591C74.8838 546.87 75.3701 546.311 76.0029 545.912C76.6416 545.514 77.3945 545.314 78.2617 545.314C79.3281 545.314 80.2129 545.634 80.916 546.272C81.625 546.911 82.0029 547.74 82.0498 548.76H80.5117C80.4648 548.145 80.2305 547.641 79.8086 547.248C79.3926 546.85 78.877 546.65 78.2617 546.65C77.4355 546.65 76.7939 546.949 76.3369 547.547C75.8857 548.139 75.6602 548.997 75.6602 550.122V550.43C75.6602 551.525 75.8857 552.369 76.3369 552.961C76.7881 553.553 77.4326 553.849 78.2705 553.849ZM89.749 555C89.6553 554.812 89.5791 554.479 89.5205 553.998C88.7646 554.783 87.8623 555.176 86.8135 555.176C85.876 555.176 85.1055 554.912 84.502 554.385C83.9043 553.852 83.6055 553.178 83.6055 552.363C83.6055 551.373 83.9805 550.605 84.7305 550.061C85.4863 549.51 86.5469 549.234 87.9121 549.234H89.4941V548.487C89.4941 547.919 89.3242 547.468 88.9844 547.134C88.6445 546.794 88.1436 546.624 87.4814 546.624C86.9014 546.624 86.415 546.771 86.0225 547.063C85.6299 547.356 85.4336 547.711 85.4336 548.127H83.7988C83.7988 547.652 83.9658 547.195 84.2998 546.756C84.6396 546.311 85.0967 545.959 85.6709 545.701C86.251 545.443 86.8867 545.314 87.5781 545.314C88.6738 545.314 89.5322 545.59 90.1533 546.141C90.7744 546.686 91.0967 547.438 91.1201 548.399V552.776C91.1201 553.649 91.2314 554.344 91.4541 554.859V555H89.749ZM87.0508 553.761C87.5605 553.761 88.0439 553.629 88.501 553.365C88.958 553.102 89.2891 552.759 89.4941 552.337V550.386H88.2197C86.2275 550.386 85.2314 550.969 85.2314 552.135C85.2314 552.645 85.4014 553.043 85.7412 553.33C86.0811 553.617 86.5176 553.761 87.0508 553.761ZM95.4355 555H93.8096V541.5H95.4355V555ZM101.992 555.176C100.703 555.176 99.6543 554.754 98.8457 553.91C98.0371 553.061 97.6328 551.927 97.6328 550.509V550.21C97.6328 549.267 97.8115 548.426 98.1689 547.688C98.5322 546.943 99.0361 546.363 99.6807 545.947C100.331 545.525 101.034 545.314 101.79 545.314C103.026 545.314 103.987 545.722 104.673 546.536C105.358 547.351 105.701 548.517 105.701 550.034V550.711H99.2588C99.2822 551.648 99.5547 552.407 100.076 552.987C100.604 553.562 101.271 553.849 102.08 553.849C102.654 553.849 103.141 553.731 103.539 553.497C103.938 553.263 104.286 552.952 104.585 552.565L105.578 553.339C104.781 554.563 103.586 555.176 101.992 555.176ZM101.79 546.65C101.134 546.65 100.583 546.891 100.138 547.371C99.6924 547.846 99.417 548.514 99.3115 549.375H104.075V549.252C104.028 548.426 103.806 547.787 103.407 547.336C103.009 546.879 102.47 546.65 101.79 546.65ZM111.625 550.157C111.625 549.226 111.807 548.388 112.17 547.644C112.539 546.899 113.049 546.325 113.699 545.921C114.355 545.517 115.103 545.314 115.94 545.314C117.235 545.314 118.281 545.763 119.078 546.659C119.881 547.556 120.282 548.748 120.282 550.236V550.351C120.282 551.276 120.104 552.108 119.746 552.847C119.395 553.579 118.888 554.15 118.226 554.561C117.569 554.971 116.813 555.176 115.958 555.176C114.669 555.176 113.623 554.728 112.82 553.831C112.023 552.935 111.625 551.748 111.625 550.271V550.157ZM113.26 550.351C113.26 551.405 113.503 552.252 113.989 552.891C114.481 553.529 115.138 553.849 115.958 553.849C116.784 553.849 117.44 553.526 117.927 552.882C118.413 552.231 118.656 551.323 118.656 550.157C118.656 549.114 118.407 548.271 117.909 547.626C117.417 546.976 116.761 546.65 115.94 546.65C115.138 546.65 114.49 546.97 113.998 547.608C113.506 548.247 113.26 549.161 113.26 550.351ZM123.121 555V546.747H121.618V545.49H123.121V544.515C123.121 543.495 123.394 542.707 123.938 542.15C124.483 541.594 125.254 541.315 126.25 541.315C126.625 541.315 126.997 541.365 127.366 541.465L127.278 542.783C127.003 542.73 126.71 542.704 126.399 542.704C125.872 542.704 125.465 542.859 125.178 543.17C124.891 543.475 124.747 543.914 124.747 544.488V545.49H126.777V546.747H124.747V555H123.121ZM138.221 555H136.586V544.163L133.308 545.367V543.891L137.966 542.142H138.221V555ZM149.822 543.188V545.49H151.598V546.747H149.822V552.645C149.822 553.025 149.901 553.312 150.06 553.506C150.218 553.693 150.487 553.787 150.868 553.787C151.056 553.787 151.313 553.752 151.642 553.682V555C151.214 555.117 150.798 555.176 150.394 555.176C149.667 555.176 149.119 554.956 148.75 554.517C148.381 554.077 148.196 553.453 148.196 552.645V546.747H146.465V545.49H148.196V543.188H149.822ZM152.898 550.157C152.898 549.226 153.08 548.388 153.443 547.644C153.812 546.899 154.322 546.325 154.973 545.921C155.629 545.517 156.376 545.314 157.214 545.314C158.509 545.314 159.555 545.763 160.352 546.659C161.154 547.556 161.556 548.748 161.556 550.236V550.351C161.556 551.276 161.377 552.108 161.02 552.847C160.668 553.579 160.161 554.15 159.499 554.561C158.843 554.971 158.087 555.176 157.231 555.176C155.942 555.176 154.896 554.728 154.094 553.831C153.297 552.935 152.898 551.748 152.898 550.271V550.157ZM154.533 550.351C154.533 551.405 154.776 552.252 155.263 552.891C155.755 553.529 156.411 553.849 157.231 553.849C158.058 553.849 158.714 553.526 159.2 552.882C159.687 552.231 159.93 551.323 159.93 550.157C159.93 549.114 159.681 548.271 159.183 547.626C158.69 546.976 158.034 546.65 157.214 546.65C156.411 546.65 155.764 546.97 155.271 547.608C154.779 548.247 154.533 549.161 154.533 550.351ZM168.64 548.584L169.29 542.203H175.847V543.706H170.67L170.283 547.195C170.91 546.826 171.622 546.642 172.419 546.642C173.585 546.642 174.511 547.028 175.196 547.802C175.882 548.569 176.225 549.609 176.225 550.922C176.225 552.24 175.867 553.28 175.152 554.042C174.443 554.798 173.45 555.176 172.173 555.176C171.042 555.176 170.119 554.862 169.404 554.235C168.689 553.608 168.282 552.741 168.183 551.634H169.721C169.82 552.366 170.081 552.92 170.503 553.295C170.925 553.664 171.481 553.849 172.173 553.849C172.929 553.849 173.521 553.591 173.948 553.075C174.382 552.56 174.599 551.848 174.599 550.939C174.599 550.084 174.364 549.398 173.896 548.883C173.433 548.361 172.814 548.101 172.041 548.101C171.332 548.101 170.775 548.256 170.371 548.566L169.94 548.918L168.64 548.584ZM178.114 557.549L177.191 556.916C177.742 556.148 178.029 555.357 178.053 554.543V553.075H179.644V554.35C179.644 554.941 179.497 555.533 179.204 556.125C178.917 556.717 178.554 557.191 178.114 557.549ZM187.791 546.642C188.512 545.757 189.449 545.314 190.604 545.314C192.613 545.314 193.627 546.448 193.645 548.716V555H192.019V548.707C192.013 548.021 191.854 547.515 191.544 547.187C191.239 546.858 190.762 546.694 190.111 546.694C189.584 546.694 189.121 546.835 188.723 547.116C188.324 547.397 188.014 547.767 187.791 548.224V555H186.165V541.5H187.791V546.642ZM195.648 550.157C195.648 549.226 195.83 548.388 196.193 547.644C196.562 546.899 197.072 546.325 197.723 545.921C198.379 545.517 199.126 545.314 199.964 545.314C201.259 545.314 202.305 545.763 203.102 546.659C203.904 547.556 204.306 548.748 204.306 550.236V550.351C204.306 551.276 204.127 552.108 203.77 552.847C203.418 553.579 202.911 554.15 202.249 554.561C201.593 554.971 200.837 555.176 199.981 555.176C198.692 555.176 197.646 554.728 196.844 553.831C196.047 552.935 195.648 551.748 195.648 550.271V550.157ZM197.283 550.351C197.283 551.405 197.526 552.252 198.013 552.891C198.505 553.529 199.161 553.849 199.981 553.849C200.808 553.849 201.464 553.526 201.95 552.882C202.437 552.231 202.68 551.323 202.68 550.157C202.68 549.114 202.431 548.271 201.933 547.626C201.44 546.976 200.784 546.65 199.964 546.65C199.161 546.65 198.514 546.97 198.021 547.608C197.529 548.247 197.283 549.161 197.283 550.351ZM214.765 552.759L216.593 545.49H218.219L215.45 555H214.132L211.82 547.793L209.57 555H208.252L205.492 545.49H207.109L208.981 552.609L211.196 545.49H212.506L214.765 552.759ZM228.159 553.849C228.739 553.849 229.246 553.673 229.68 553.321C230.113 552.97 230.354 552.53 230.4 552.003H231.938C231.909 552.548 231.722 553.066 231.376 553.559C231.03 554.051 230.567 554.443 229.987 554.736C229.413 555.029 228.804 555.176 228.159 555.176C226.864 555.176 225.833 554.745 225.065 553.884C224.304 553.017 223.923 551.833 223.923 550.333V550.061C223.923 549.135 224.093 548.312 224.433 547.591C224.772 546.87 225.259 546.311 225.892 545.912C226.53 545.514 227.283 545.314 228.15 545.314C229.217 545.314 230.102 545.634 230.805 546.272C231.514 546.911 231.892 547.74 231.938 548.76H230.4C230.354 548.145 230.119 547.641 229.697 547.248C229.281 546.85 228.766 546.65 228.15 546.65C227.324 546.65 226.683 546.949 226.226 547.547C225.774 548.139 225.549 548.997 225.549 550.122V550.43C225.549 551.525 225.774 552.369 226.226 552.961C226.677 553.553 227.321 553.849 228.159 553.849ZM233.336 550.157C233.336 549.226 233.518 548.388 233.881 547.644C234.25 546.899 234.76 546.325 235.41 545.921C236.066 545.517 236.813 545.314 237.651 545.314C238.946 545.314 239.992 545.763 240.789 546.659C241.592 547.556 241.993 548.748 241.993 550.236V550.351C241.993 551.276 241.814 552.108 241.457 552.847C241.105 553.579 240.599 554.15 239.937 554.561C239.28 554.971 238.524 555.176 237.669 555.176C236.38 555.176 235.334 554.728 234.531 553.831C233.734 552.935 233.336 551.748 233.336 550.271V550.157ZM234.971 550.351C234.971 551.405 235.214 552.252 235.7 552.891C236.192 553.529 236.849 553.849 237.669 553.849C238.495 553.849 239.151 553.526 239.638 552.882C240.124 552.231 240.367 551.323 240.367 550.157C240.367 549.114 240.118 548.271 239.62 547.626C239.128 546.976 238.472 546.65 237.651 546.65C236.849 546.65 236.201 546.97 235.709 547.608C235.217 548.247 234.971 549.161 234.971 550.351ZM245.562 545.49L245.605 546.545C246.303 545.725 247.243 545.314 248.427 545.314C249.757 545.314 250.662 545.824 251.143 546.844C251.459 546.387 251.869 546.018 252.373 545.736C252.883 545.455 253.483 545.314 254.175 545.314C256.261 545.314 257.321 546.419 257.356 548.628V555H255.73V548.725C255.73 548.045 255.575 547.538 255.265 547.204C254.954 546.864 254.433 546.694 253.7 546.694C253.097 546.694 252.596 546.876 252.197 547.239C251.799 547.597 251.567 548.08 251.503 548.689V555H249.868V548.769C249.868 547.386 249.191 546.694 247.838 546.694C246.771 546.694 246.042 547.148 245.649 548.057V555H244.023V545.49H245.562ZM260.617 555V546.747H259.114V545.49H260.617V544.515C260.617 543.495 260.89 542.707 261.435 542.15C261.979 541.594 262.75 541.315 263.746 541.315C264.121 541.315 264.493 541.365 264.862 541.465L264.774 542.783C264.499 542.73 264.206 542.704 263.896 542.704C263.368 542.704 262.961 542.859 262.674 543.17C262.387 543.475 262.243 543.914 262.243 544.488V545.49H264.273V546.747H262.243V555H260.617ZM265.645 550.157C265.645 549.226 265.826 548.388 266.189 547.644C266.559 546.899 267.068 546.325 267.719 545.921C268.375 545.517 269.122 545.314 269.96 545.314C271.255 545.314 272.301 545.763 273.098 546.659C273.9 547.556 274.302 548.748 274.302 550.236V550.351C274.302 551.276 274.123 552.108 273.766 552.847C273.414 553.579 272.907 554.15 272.245 554.561C271.589 554.971 270.833 555.176 269.978 555.176C268.688 555.176 267.643 554.728 266.84 553.831C266.043 552.935 265.645 551.748 265.645 550.271V550.157ZM267.279 550.351C267.279 551.405 267.522 552.252 268.009 552.891C268.501 553.529 269.157 553.849 269.978 553.849C270.804 553.849 271.46 553.526 271.946 552.882C272.433 552.231 272.676 551.323 272.676 550.157C272.676 549.114 272.427 548.271 271.929 547.626C271.437 546.976 270.78 546.65 269.96 546.65C269.157 546.65 268.51 546.97 268.018 547.608C267.525 548.247 267.279 549.161 267.279 550.351ZM280.938 546.949C280.691 546.908 280.425 546.888 280.138 546.888C279.071 546.888 278.348 547.342 277.967 548.25V555H276.341V545.49H277.923L277.949 546.589C278.482 545.739 279.238 545.314 280.217 545.314C280.533 545.314 280.773 545.355 280.938 545.438V546.949ZM285.086 543.188V545.49H286.861V546.747H285.086V552.645C285.086 553.025 285.165 553.312 285.323 553.506C285.481 553.693 285.751 553.787 286.132 553.787C286.319 553.787 286.577 553.752 286.905 553.682V555C286.478 555.117 286.062 555.176 285.657 555.176C284.931 555.176 284.383 554.956 284.014 554.517C283.645 554.077 283.46 553.453 283.46 552.645V546.747H281.729V545.49H283.46V543.188H285.086ZM294.64 555C294.546 554.812 294.47 554.479 294.411 553.998C293.655 554.783 292.753 555.176 291.704 555.176C290.767 555.176 289.996 554.912 289.393 554.385C288.795 553.852 288.496 553.178 288.496 552.363C288.496 551.373 288.871 550.605 289.621 550.061C290.377 549.51 291.438 549.234 292.803 549.234H294.385V548.487C294.385 547.919 294.215 547.468 293.875 547.134C293.535 546.794 293.034 546.624 292.372 546.624C291.792 546.624 291.306 546.771 290.913 547.063C290.521 547.356 290.324 547.711 290.324 548.127H288.689C288.689 547.652 288.856 547.195 289.19 546.756C289.53 546.311 289.987 545.959 290.562 545.701C291.142 545.443 291.777 545.314 292.469 545.314C293.564 545.314 294.423 545.59 295.044 546.141C295.665 546.686 295.987 547.438 296.011 548.399V552.776C296.011 553.649 296.122 554.344 296.345 554.859V555H294.64ZM291.941 553.761C292.451 553.761 292.935 553.629 293.392 553.365C293.849 553.102 294.18 552.759 294.385 552.337V550.386H293.11C291.118 550.386 290.122 550.969 290.122 552.135C290.122 552.645 290.292 553.043 290.632 553.33C290.972 553.617 291.408 553.761 291.941 553.761ZM306.61 550.351C306.61 551.804 306.276 552.973 305.608 553.857C304.94 554.736 304.044 555.176 302.919 555.176C301.718 555.176 300.789 554.751 300.133 553.901L300.054 555H298.56V541.5H300.186V546.536C300.842 545.722 301.747 545.314 302.901 545.314C304.056 545.314 304.961 545.751 305.617 546.624C306.279 547.497 306.61 548.692 306.61 550.21V550.351ZM304.984 550.166C304.984 549.059 304.771 548.203 304.343 547.6C303.915 546.996 303.3 546.694 302.497 546.694C301.425 546.694 300.654 547.192 300.186 548.188V552.302C300.684 553.298 301.46 553.796 302.515 553.796C303.294 553.796 303.9 553.494 304.334 552.891C304.768 552.287 304.984 551.379 304.984 550.166ZM310.434 555H308.808V541.5H310.434V555ZM316.99 555.176C315.701 555.176 314.652 554.754 313.844 553.91C313.035 553.061 312.631 551.927 312.631 550.509V550.21C312.631 549.267 312.81 548.426 313.167 547.688C313.53 546.943 314.034 546.363 314.679 545.947C315.329 545.525 316.032 545.314 316.788 545.314C318.024 545.314 318.985 545.722 319.671 546.536C320.356 547.351 320.699 548.517 320.699 550.034V550.711H314.257C314.28 551.648 314.553 552.407 315.074 552.987C315.602 553.562 316.27 553.849 317.078 553.849C317.652 553.849 318.139 553.731 318.537 553.497C318.936 553.263 319.284 552.952 319.583 552.565L320.576 553.339C319.779 554.563 318.584 555.176 316.99 555.176ZM316.788 546.65C316.132 546.65 315.581 546.891 315.136 547.371C314.69 547.846 314.415 548.514 314.31 549.375H319.073V549.252C319.026 548.426 318.804 547.787 318.405 547.336C318.007 546.879 317.468 546.65 316.788 546.65ZM332.925 555C332.831 554.812 332.755 554.479 332.696 553.998C331.94 554.783 331.038 555.176 329.989 555.176C329.052 555.176 328.281 554.912 327.678 554.385C327.08 553.852 326.781 553.178 326.781 552.363C326.781 551.373 327.156 550.605 327.906 550.061C328.662 549.51 329.723 549.234 331.088 549.234H332.67V548.487C332.67 547.919 332.5 547.468 332.16 547.134C331.82 546.794 331.319 546.624 330.657 546.624C330.077 546.624 329.591 546.771 329.198 547.063C328.806 547.356 328.609 547.711 328.609 548.127H326.975C326.975 547.652 327.142 547.195 327.476 546.756C327.815 546.311 328.272 545.959 328.847 545.701C329.427 545.443 330.062 545.314 330.754 545.314C331.85 545.314 332.708 545.59 333.329 546.141C333.95 546.686 334.272 547.438 334.296 548.399V552.776C334.296 553.649 334.407 554.344 334.63 554.859V555H332.925ZM330.227 553.761C330.736 553.761 331.22 553.629 331.677 553.365C332.134 553.102 332.465 552.759 332.67 552.337V550.386H331.396C329.403 550.386 328.407 550.969 328.407 552.135C328.407 552.645 328.577 553.043 328.917 553.33C329.257 553.617 329.693 553.761 330.227 553.761ZM341.441 546.949C341.195 546.908 340.929 546.888 340.642 546.888C339.575 546.888 338.852 547.342 338.471 548.25V555H336.845V545.49H338.427L338.453 546.589C338.986 545.739 339.742 545.314 340.721 545.314C341.037 545.314 341.277 545.355 341.441 545.438V546.949ZM346.715 555.176C345.426 555.176 344.377 554.754 343.568 553.91C342.76 553.061 342.355 551.927 342.355 550.509V550.21C342.355 549.267 342.534 548.426 342.892 547.688C343.255 546.943 343.759 546.363 344.403 545.947C345.054 545.525 345.757 545.314 346.513 545.314C347.749 545.314 348.71 545.722 349.396 546.536C350.081 547.351 350.424 548.517 350.424 550.034V550.711H343.981C344.005 551.648 344.277 552.407 344.799 552.987C345.326 553.562 345.994 553.849 346.803 553.849C347.377 553.849 347.863 553.731 348.262 553.497C348.66 553.263 349.009 552.952 349.308 552.565L350.301 553.339C349.504 554.563 348.309 555.176 346.715 555.176ZM346.513 546.65C345.856 546.65 345.306 546.891 344.86 547.371C344.415 547.846 344.14 548.514 344.034 549.375H348.798V549.252C348.751 548.426 348.528 547.787 348.13 547.336C347.731 546.879 347.192 546.65 346.513 546.65ZM65.7812 573.618L67.9961 566.49H69.7363L65.9131 577.468C65.3213 579.05 64.3809 579.841 63.0918 579.841L62.7842 579.814L62.1777 579.7V578.382L62.6172 578.417C63.168 578.417 63.5957 578.306 63.9004 578.083C64.2109 577.86 64.4658 577.453 64.665 576.861L65.0254 575.895L61.6328 566.49H63.4082L65.7812 573.618ZM70.624 571.157C70.624 570.226 70.8057 569.388 71.1689 568.644C71.5381 567.899 72.0479 567.325 72.6982 566.921C73.3545 566.517 74.1016 566.314 74.9395 566.314C76.2344 566.314 77.2803 566.763 78.0771 567.659C78.8799 568.556 79.2812 569.748 79.2812 571.236V571.351C79.2812 572.276 79.1025 573.108 78.7451 573.847C78.3936 574.579 77.8867 575.15 77.2246 575.561C76.5684 575.971 75.8125 576.176 74.957 576.176C73.668 576.176 72.6221 575.728 71.8193 574.831C71.0225 573.935 70.624 572.748 70.624 571.271V571.157ZM72.2588 571.351C72.2588 572.405 72.502 573.252 72.9883 573.891C73.4805 574.529 74.1367 574.849 74.957 574.849C75.7832 574.849 76.4395 574.526 76.9258 573.882C77.4121 573.231 77.6553 572.323 77.6553 571.157C77.6553 570.114 77.4062 569.271 76.9082 568.626C76.416 567.976 75.7598 567.65 74.9395 567.65C74.1367 567.65 73.4893 567.97 72.9971 568.608C72.5049 569.247 72.2588 570.161 72.2588 571.351ZM87.1914 575.06C86.5586 575.804 85.6299 576.176 84.4053 576.176C83.3916 576.176 82.6182 575.883 82.085 575.297C81.5576 574.705 81.291 573.832 81.2852 572.678V566.49H82.9111V572.634C82.9111 574.075 83.4971 574.796 84.6689 574.796C85.9111 574.796 86.7373 574.333 87.1475 573.407V566.49H88.7734V576H87.2266L87.1914 575.06ZM104.137 573.759L105.965 566.49H107.591L104.822 576H103.504L101.192 568.793L98.9424 576H97.624L94.8643 566.49H96.4814L98.3535 573.609L100.568 566.49H101.878L104.137 573.759ZM111.019 576H109.393V566.49H111.019V576ZM109.261 563.968C109.261 563.704 109.34 563.481 109.498 563.3C109.662 563.118 109.902 563.027 110.219 563.027C110.535 563.027 110.775 563.118 110.939 563.3C111.104 563.481 111.186 563.704 111.186 563.968C111.186 564.231 111.104 564.451 110.939 564.627C110.775 564.803 110.535 564.891 110.219 564.891C109.902 564.891 109.662 564.803 109.498 564.627C109.34 564.451 109.261 564.231 109.261 563.968ZM115.835 564.188V566.49H117.61V567.747H115.835V573.645C115.835 574.025 115.914 574.312 116.072 574.506C116.23 574.693 116.5 574.787 116.881 574.787C117.068 574.787 117.326 574.752 117.654 574.682V576C117.227 576.117 116.811 576.176 116.406 576.176C115.68 576.176 115.132 575.956 114.763 575.517C114.394 575.077 114.209 574.453 114.209 573.645V567.747H112.478V566.49H114.209V564.188H115.835ZM121.144 567.642C121.864 566.757 122.802 566.314 123.956 566.314C125.966 566.314 126.979 567.448 126.997 569.716V576H125.371V569.707C125.365 569.021 125.207 568.515 124.896 568.187C124.592 567.858 124.114 567.694 123.464 567.694C122.937 567.694 122.474 567.835 122.075 568.116C121.677 568.397 121.366 568.767 121.144 569.224V576H119.518V562.5H121.144V567.642ZM136.103 564.188V566.49H137.878V567.747H136.103V573.645C136.103 574.025 136.182 574.312 136.34 574.506C136.498 574.693 136.768 574.787 137.148 574.787C137.336 574.787 137.594 574.752 137.922 574.682V576C137.494 576.117 137.078 576.176 136.674 576.176C135.947 576.176 135.399 575.956 135.03 575.517C134.661 575.077 134.477 574.453 134.477 573.645V567.747H132.745V566.49H134.477V564.188H136.103ZM141.411 567.642C142.132 566.757 143.069 566.314 144.224 566.314C146.233 566.314 147.247 567.448 147.265 569.716V576H145.639V569.707C145.633 569.021 145.475 568.515 145.164 568.187C144.859 567.858 144.382 567.694 143.731 567.694C143.204 567.694 142.741 567.835 142.343 568.116C141.944 568.397 141.634 568.767 141.411 569.224V576H139.785V562.5H141.411V567.642ZM153.646 576.176C152.356 576.176 151.308 575.754 150.499 574.91C149.69 574.061 149.286 572.927 149.286 571.509V571.21C149.286 570.267 149.465 569.426 149.822 568.688C150.186 567.943 150.689 567.363 151.334 566.947C151.984 566.525 152.688 566.314 153.443 566.314C154.68 566.314 155.641 566.722 156.326 567.536C157.012 568.351 157.354 569.517 157.354 571.034V571.711H150.912C150.936 572.648 151.208 573.407 151.729 573.987C152.257 574.562 152.925 574.849 153.733 574.849C154.308 574.849 154.794 574.731 155.192 574.497C155.591 574.263 155.939 573.952 156.238 573.565L157.231 574.339C156.435 575.563 155.239 576.176 153.646 576.176ZM153.443 567.65C152.787 567.65 152.236 567.891 151.791 568.371C151.346 568.846 151.07 569.514 150.965 570.375H155.729V570.252C155.682 569.426 155.459 568.787 155.061 568.336C154.662 567.879 154.123 567.65 153.443 567.65ZM171.197 570.085H165.651V574.62H172.094V576H163.964V563.203H172.006V564.592H165.651V568.705H171.197V570.085ZM175.478 566.49L175.53 567.686C176.257 566.771 177.206 566.314 178.378 566.314C180.388 566.314 181.401 567.448 181.419 569.716V576H179.793V569.707C179.787 569.021 179.629 568.515 179.318 568.187C179.014 567.858 178.536 567.694 177.886 567.694C177.358 567.694 176.896 567.835 176.497 568.116C176.099 568.397 175.788 568.767 175.565 569.224V576H173.939V566.49H175.478ZM183.484 571.166C183.484 569.684 183.827 568.506 184.513 567.633C185.198 566.754 186.106 566.314 187.237 566.314C188.397 566.314 189.303 566.725 189.953 567.545L190.032 566.49H191.518V575.771C191.518 577.002 191.151 577.972 190.419 578.681C189.692 579.39 188.714 579.744 187.483 579.744C186.798 579.744 186.127 579.598 185.471 579.305C184.814 579.012 184.313 578.61 183.968 578.101L184.812 577.125C185.509 577.986 186.361 578.417 187.369 578.417C188.16 578.417 188.775 578.194 189.215 577.749C189.66 577.304 189.883 576.677 189.883 575.868V575.051C189.232 575.801 188.345 576.176 187.22 576.176C186.106 576.176 185.204 575.728 184.513 574.831C183.827 573.935 183.484 572.713 183.484 571.166ZM185.119 571.351C185.119 572.423 185.339 573.267 185.778 573.882C186.218 574.491 186.833 574.796 187.624 574.796C188.649 574.796 189.402 574.33 189.883 573.398V569.057C189.385 568.148 188.638 567.694 187.642 567.694C186.851 567.694 186.232 568.002 185.787 568.617C185.342 569.232 185.119 570.144 185.119 571.351ZM195.745 576H194.119V562.5H195.745V576ZM200.122 576H198.496V566.49H200.122V576ZM198.364 563.968C198.364 563.704 198.443 563.481 198.602 563.3C198.766 563.118 199.006 563.027 199.322 563.027C199.639 563.027 199.879 563.118 200.043 563.3C200.207 563.481 200.289 563.704 200.289 563.968C200.289 564.231 200.207 564.451 200.043 564.627C199.879 564.803 199.639 564.891 199.322 564.891C199.006 564.891 198.766 564.803 198.602 564.627C198.443 564.451 198.364 564.231 198.364 563.968ZM208.27 573.478C208.27 573.038 208.103 572.698 207.769 572.458C207.44 572.212 206.863 572.001 206.037 571.825C205.217 571.649 204.563 571.438 204.077 571.192C203.597 570.946 203.239 570.653 203.005 570.313C202.776 569.974 202.662 569.569 202.662 569.101C202.662 568.321 202.99 567.662 203.646 567.123C204.309 566.584 205.152 566.314 206.178 566.314C207.256 566.314 208.129 566.593 208.797 567.149C209.471 567.706 209.808 568.418 209.808 569.285H208.173C208.173 568.84 207.982 568.456 207.602 568.134C207.227 567.812 206.752 567.65 206.178 567.65C205.586 567.65 205.123 567.779 204.789 568.037C204.455 568.295 204.288 568.632 204.288 569.048C204.288 569.44 204.443 569.736 204.754 569.936C205.064 570.135 205.624 570.325 206.433 570.507C207.247 570.688 207.906 570.905 208.41 571.157C208.914 571.409 209.286 571.714 209.526 572.071C209.772 572.423 209.896 572.854 209.896 573.363C209.896 574.213 209.556 574.896 208.876 575.411C208.196 575.921 207.314 576.176 206.23 576.176C205.469 576.176 204.795 576.041 204.209 575.771C203.623 575.502 203.163 575.127 202.829 574.646C202.501 574.16 202.337 573.636 202.337 573.073H203.963C203.992 573.618 204.209 574.052 204.613 574.374C205.023 574.69 205.562 574.849 206.23 574.849C206.846 574.849 207.338 574.726 207.707 574.479C208.082 574.228 208.27 573.894 208.27 573.478ZM213.64 567.642C214.36 566.757 215.298 566.314 216.452 566.314C218.462 566.314 219.476 567.448 219.493 569.716V576H217.867V569.707C217.861 569.021 217.703 568.515 217.393 568.187C217.088 567.858 216.61 567.694 215.96 567.694C215.433 567.694 214.97 567.835 214.571 568.116C214.173 568.397 213.862 568.767 213.64 569.224V576H212.014V562.5H213.64V567.642ZM228.344 574.62H234.408V576H226.647V563.203H228.344V574.62ZM241.949 576C241.855 575.812 241.779 575.479 241.721 574.998C240.965 575.783 240.062 576.176 239.014 576.176C238.076 576.176 237.306 575.912 236.702 575.385C236.104 574.852 235.806 574.178 235.806 573.363C235.806 572.373 236.181 571.605 236.931 571.061C237.687 570.51 238.747 570.234 240.112 570.234H241.694V569.487C241.694 568.919 241.524 568.468 241.185 568.134C240.845 567.794 240.344 567.624 239.682 567.624C239.102 567.624 238.615 567.771 238.223 568.063C237.83 568.356 237.634 568.711 237.634 569.127H235.999C235.999 568.652 236.166 568.195 236.5 567.756C236.84 567.311 237.297 566.959 237.871 566.701C238.451 566.443 239.087 566.314 239.778 566.314C240.874 566.314 241.732 566.59 242.354 567.141C242.975 567.686 243.297 568.438 243.32 569.399V573.776C243.32 574.649 243.432 575.344 243.654 575.859V576H241.949ZM239.251 574.761C239.761 574.761 240.244 574.629 240.701 574.365C241.158 574.102 241.489 573.759 241.694 573.337V571.386H240.42C238.428 571.386 237.432 571.969 237.432 573.135C237.432 573.645 237.602 574.043 237.941 574.33C238.281 574.617 238.718 574.761 239.251 574.761ZM247.407 566.49L247.46 567.686C248.187 566.771 249.136 566.314 250.308 566.314C252.317 566.314 253.331 567.448 253.349 569.716V576H251.723V569.707C251.717 569.021 251.559 568.515 251.248 568.187C250.943 567.858 250.466 567.694 249.815 567.694C249.288 567.694 248.825 567.835 248.427 568.116C248.028 568.397 247.718 568.767 247.495 569.224V576H245.869V566.49H247.407ZM255.414 571.166C255.414 569.684 255.757 568.506 256.442 567.633C257.128 566.754 258.036 566.314 259.167 566.314C260.327 566.314 261.232 566.725 261.883 567.545L261.962 566.49H263.447V575.771C263.447 577.002 263.081 577.972 262.349 578.681C261.622 579.39 260.644 579.744 259.413 579.744C258.728 579.744 258.057 579.598 257.4 579.305C256.744 579.012 256.243 578.61 255.897 578.101L256.741 577.125C257.438 577.986 258.291 578.417 259.299 578.417C260.09 578.417 260.705 578.194 261.145 577.749C261.59 577.304 261.812 576.677 261.812 575.868V575.051C261.162 575.801 260.274 576.176 259.149 576.176C258.036 576.176 257.134 575.728 256.442 574.831C255.757 573.935 255.414 572.713 255.414 571.166ZM257.049 571.351C257.049 572.423 257.269 573.267 257.708 573.882C258.147 574.491 258.763 574.796 259.554 574.796C260.579 574.796 261.332 574.33 261.812 573.398V569.057C261.314 568.148 260.567 567.694 259.571 567.694C258.78 567.694 258.162 568.002 257.717 568.617C257.271 569.232 257.049 570.144 257.049 571.351ZM271.779 575.06C271.146 575.804 270.218 576.176 268.993 576.176C267.979 576.176 267.206 575.883 266.673 575.297C266.146 574.705 265.879 573.832 265.873 572.678V566.49H267.499V572.634C267.499 574.075 268.085 574.796 269.257 574.796C270.499 574.796 271.325 574.333 271.735 573.407V566.49H273.361V576H271.814L271.779 575.06ZM281.711 576C281.617 575.812 281.541 575.479 281.482 574.998C280.727 575.783 279.824 576.176 278.775 576.176C277.838 576.176 277.067 575.912 276.464 575.385C275.866 574.852 275.567 574.178 275.567 573.363C275.567 572.373 275.942 571.605 276.692 571.061C277.448 570.51 278.509 570.234 279.874 570.234H281.456V569.487C281.456 568.919 281.286 568.468 280.946 568.134C280.606 567.794 280.105 567.624 279.443 567.624C278.863 567.624 278.377 567.771 277.984 568.063C277.592 568.356 277.396 568.711 277.396 569.127H275.761C275.761 568.652 275.928 568.195 276.262 567.756C276.602 567.311 277.059 566.959 277.633 566.701C278.213 566.443 278.849 566.314 279.54 566.314C280.636 566.314 281.494 566.59 282.115 567.141C282.736 567.686 283.059 568.438 283.082 569.399V573.776C283.082 574.649 283.193 575.344 283.416 575.859V576H281.711ZM279.013 574.761C279.522 574.761 280.006 574.629 280.463 574.365C280.92 574.102 281.251 573.759 281.456 573.337V571.386H280.182C278.189 571.386 277.193 571.969 277.193 573.135C277.193 573.645 277.363 574.043 277.703 574.33C278.043 574.617 278.479 574.761 279.013 574.761ZM285.244 571.166C285.244 569.684 285.587 568.506 286.272 567.633C286.958 566.754 287.866 566.314 288.997 566.314C290.157 566.314 291.062 566.725 291.713 567.545L291.792 566.49H293.277V575.771C293.277 577.002 292.911 577.972 292.179 578.681C291.452 579.39 290.474 579.744 289.243 579.744C288.558 579.744 287.887 579.598 287.23 579.305C286.574 579.012 286.073 578.61 285.728 578.101L286.571 577.125C287.269 577.986 288.121 578.417 289.129 578.417C289.92 578.417 290.535 578.194 290.975 577.749C291.42 577.304 291.643 576.677 291.643 575.868V575.051C290.992 575.801 290.104 576.176 288.979 576.176C287.866 576.176 286.964 575.728 286.272 574.831C285.587 573.935 285.244 572.713 285.244 571.166ZM286.879 571.351C286.879 572.423 287.099 573.267 287.538 573.882C287.978 574.491 288.593 574.796 289.384 574.796C290.409 574.796 291.162 574.33 291.643 573.398V569.057C291.145 568.148 290.397 567.694 289.401 567.694C288.61 567.694 287.992 568.002 287.547 568.617C287.102 569.232 286.879 570.144 286.879 571.351ZM299.685 576.176C298.396 576.176 297.347 575.754 296.538 574.91C295.729 574.061 295.325 572.927 295.325 571.509V571.21C295.325 570.267 295.504 569.426 295.861 568.688C296.225 567.943 296.729 567.363 297.373 566.947C298.023 566.525 298.727 566.314 299.482 566.314C300.719 566.314 301.68 566.722 302.365 567.536C303.051 568.351 303.394 569.517 303.394 571.034V571.711H296.951C296.975 572.648 297.247 573.407 297.769 573.987C298.296 574.562 298.964 574.849 299.772 574.849C300.347 574.849 300.833 574.731 301.231 574.497C301.63 574.263 301.979 573.952 302.277 573.565L303.271 574.339C302.474 575.563 301.278 576.176 299.685 576.176ZM299.482 567.65C298.826 567.65 298.275 567.891 297.83 568.371C297.385 568.846 297.109 569.514 297.004 570.375H301.768V570.252C301.721 569.426 301.498 568.787 301.1 568.336C300.701 567.879 300.162 567.65 299.482 567.65ZM307.19 572.396C307.202 571.699 307.281 571.148 307.428 570.744C307.574 570.34 307.873 569.892 308.324 569.399L309.476 568.213C309.968 567.656 310.214 567.059 310.214 566.42C310.214 565.805 310.053 565.324 309.73 564.979C309.408 564.627 308.939 564.451 308.324 564.451C307.727 564.451 307.246 564.609 306.883 564.926C306.52 565.242 306.338 565.667 306.338 566.2H304.712C304.724 565.251 305.061 564.486 305.723 563.906C306.391 563.32 307.258 563.027 308.324 563.027C309.432 563.027 310.293 563.326 310.908 563.924C311.529 564.516 311.84 565.33 311.84 566.367C311.84 567.393 311.365 568.403 310.416 569.399L309.458 570.349C309.03 570.823 308.816 571.506 308.816 572.396H307.19ZM307.12 575.183C307.12 574.919 307.199 574.699 307.357 574.523C307.521 574.342 307.762 574.251 308.078 574.251C308.395 574.251 308.635 574.342 308.799 574.523C308.963 574.699 309.045 574.919 309.045 575.183C309.045 575.446 308.963 575.666 308.799 575.842C308.635 576.012 308.395 576.097 308.078 576.097C307.762 576.097 307.521 576.012 307.357 575.842C307.199 575.666 307.12 575.446 307.12 575.183Z" fill="black"/>
<circle cx="40" cy="624" r="12" fill="black"/>
<circle cx="40" cy="624" r="10" fill="white"/>
<circle cx="336" cy="624" r="12" fill="black"/>
<circle cx="336" cy="624" r="10" fill="white"/>
<circle cx="182" cy="624" r="12" fill="black"/>
<circle cx="182" cy="624" r="10" fill="white"/>
<circle cx="261" cy="624" r="12" fill="black"/>
<circle cx="261" cy="624" r="10" fill="white"/>
<circle cx="111" cy="624" r="12" fill="black"/>
<circle cx="111" cy="624" r="10" fill="white"/>
<circle cx="182" cy="624" r="8" fill="black"/>
<path d="M40.8535 656H39.2188V645.163L35.9404 646.367V644.891L40.5986 643.142H40.8535V656Z" fill="black"/>
<path d="M114.895 656H106.51V654.831L110.939 649.909C111.596 649.165 112.047 648.562 112.293 648.099C112.545 647.63 112.671 647.146 112.671 646.648C112.671 645.98 112.469 645.433 112.064 645.005C111.66 644.577 111.121 644.363 110.447 644.363C109.639 644.363 109.009 644.595 108.558 645.058C108.112 645.515 107.89 646.153 107.89 646.974H106.264C106.264 645.796 106.642 644.844 107.397 644.117C108.159 643.391 109.176 643.027 110.447 643.027C111.637 643.027 112.577 643.341 113.269 643.968C113.96 644.589 114.306 645.418 114.306 646.455C114.306 647.715 113.503 649.215 111.897 650.955L108.47 654.673H114.895V656Z" fill="black"/>
<path d="M180.874 648.811H182.096C182.863 648.799 183.467 648.597 183.906 648.204C184.346 647.812 184.565 647.281 184.565 646.613C184.565 645.113 183.818 644.363 182.324 644.363C181.621 644.363 181.059 644.565 180.637 644.97C180.221 645.368 180.013 645.898 180.013 646.561H178.387C178.387 645.547 178.756 644.706 179.494 644.038C180.238 643.364 181.182 643.027 182.324 643.027C183.531 643.027 184.478 643.347 185.163 643.985C185.849 644.624 186.191 645.512 186.191 646.648C186.191 647.205 186.01 647.744 185.646 648.266C185.289 648.787 184.8 649.177 184.179 649.435C184.882 649.657 185.424 650.026 185.805 650.542C186.191 651.058 186.385 651.688 186.385 652.432C186.385 653.58 186.01 654.491 185.26 655.165C184.51 655.839 183.534 656.176 182.333 656.176C181.132 656.176 180.153 655.851 179.397 655.2C178.647 654.55 178.272 653.691 178.272 652.625H179.907C179.907 653.299 180.127 653.838 180.566 654.242C181.006 654.646 181.595 654.849 182.333 654.849C183.118 654.849 183.719 654.644 184.135 654.233C184.551 653.823 184.759 653.234 184.759 652.467C184.759 651.723 184.53 651.151 184.073 650.753C183.616 650.354 182.957 650.149 182.096 650.138H180.874V648.811Z" fill="black"/>
<path d="M263.374 651.702H265.149V653.029H263.374V656H261.739V653.029H255.912V652.071L261.643 643.203H263.374V651.702ZM257.758 651.702H261.739V645.427L261.546 645.778L257.758 651.702Z" fill="black"/>
<path d="M332.257 649.584L332.907 643.203H339.464V644.706H334.287L333.9 648.195C334.527 647.826 335.239 647.642 336.036 647.642C337.202 647.642 338.128 648.028 338.813 648.802C339.499 649.569 339.842 650.609 339.842 651.922C339.842 653.24 339.484 654.28 338.77 655.042C338.061 655.798 337.067 656.176 335.79 656.176C334.659 656.176 333.736 655.862 333.021 655.235C332.307 654.608 331.899 653.741 331.8 652.634H333.338C333.438 653.366 333.698 653.92 334.12 654.295C334.542 654.664 335.099 654.849 335.79 654.849C336.546 654.849 337.138 654.591 337.565 654.075C337.999 653.56 338.216 652.848 338.216 651.939C338.216 651.084 337.981 650.398 337.513 649.883C337.05 649.361 336.432 649.101 335.658 649.101C334.949 649.101 334.393 649.256 333.988 649.566L333.558 649.918L332.257 649.584Z" fill="black"/>
<path d="M38.0322 605H36.7129L31.7021 597.33V605H30.3828V595.047H31.7021L36.7266 602.751V595.047H38.0322V605ZM39.8301 601.233C39.8301 600.509 39.9714 599.857 40.2539 599.278C40.541 598.7 40.9375 598.253 41.4434 597.938C41.9538 597.624 42.5348 597.467 43.1865 597.467C44.1937 597.467 45.0072 597.815 45.627 598.513C46.2513 599.21 46.5635 600.137 46.5635 601.295V601.384C46.5635 602.104 46.4245 602.751 46.1465 603.325C45.873 603.895 45.4788 604.339 44.9639 604.658C44.4535 604.977 43.8656 605.137 43.2002 605.137C42.1976 605.137 41.3841 604.788 40.7598 604.091C40.14 603.394 39.8301 602.471 39.8301 601.322V601.233ZM41.1016 601.384C41.1016 602.204 41.2907 602.863 41.6689 603.359C42.0518 603.856 42.5622 604.104 43.2002 604.104C43.8428 604.104 44.3532 603.854 44.7314 603.353C45.1097 602.847 45.2988 602.14 45.2988 601.233C45.2988 600.422 45.1051 599.766 44.7178 599.265C44.335 598.759 43.8245 598.506 43.1865 598.506C42.5622 598.506 42.0586 598.754 41.6758 599.251C41.293 599.748 41.1016 600.459 41.1016 601.384ZM49.8652 595.812V597.604H51.2461V598.581H49.8652V603.168C49.8652 603.464 49.9268 603.688 50.0498 603.838C50.1729 603.984 50.3825 604.057 50.6787 604.057C50.8245 604.057 51.0251 604.029 51.2803 603.975V605C50.9476 605.091 50.624 605.137 50.3096 605.137C49.7445 605.137 49.3184 604.966 49.0312 604.624C48.7441 604.282 48.6006 603.797 48.6006 603.168V598.581H47.2539V597.604H48.6006V595.812H49.8652Z" fill="black"/>
<path d="M326.683 603.257L329.526 595.047H330.962L327.271 605H326.108L322.424 595.047H323.853L326.683 603.257ZM334.872 605.137C333.869 605.137 333.054 604.809 332.425 604.152C331.796 603.492 331.481 602.61 331.481 601.507V601.274C331.481 600.541 331.62 599.887 331.898 599.312C332.181 598.734 332.573 598.283 333.074 597.959C333.58 597.631 334.127 597.467 334.715 597.467C335.676 597.467 336.424 597.784 336.957 598.417C337.49 599.05 337.757 599.957 337.757 601.138V601.664H332.746C332.764 602.393 332.976 602.983 333.382 603.435C333.792 603.881 334.312 604.104 334.94 604.104C335.387 604.104 335.765 604.013 336.075 603.831C336.385 603.649 336.656 603.407 336.889 603.106L337.661 603.708C337.041 604.66 336.112 605.137 334.872 605.137ZM334.715 598.506C334.204 598.506 333.776 598.693 333.43 599.066C333.083 599.436 332.869 599.955 332.787 600.625H336.492V600.529C336.456 599.887 336.283 599.39 335.973 599.039C335.663 598.684 335.243 598.506 334.715 598.506ZM342.802 598.738C342.61 598.706 342.403 598.69 342.18 598.69C341.35 598.69 340.787 599.044 340.491 599.75V605H339.227V597.604H340.457L340.478 598.458C340.892 597.797 341.48 597.467 342.241 597.467C342.487 597.467 342.674 597.499 342.802 597.562V598.738ZM346.514 603.147L348.236 597.604H349.59L346.616 606.142C346.156 607.372 345.424 607.987 344.422 607.987L344.183 607.967L343.711 607.878V606.853L344.053 606.88C344.481 606.88 344.814 606.793 345.051 606.62C345.292 606.447 345.491 606.13 345.646 605.67L345.926 604.918L343.287 597.604H344.668L346.514 603.147Z" fill="black"/>
<rect x="114" y="675" width="147" height="32" rx="16" fill="#851AF0"/>
<path d="M162.416 694.245C162.416 693.692 162.221 693.269 161.83 692.976C161.439 692.676 160.736 692.364 159.721 692.038C158.705 691.706 157.901 691.381 157.308 691.062C155.694 690.189 154.887 689.014 154.887 687.536C154.887 686.768 155.101 686.085 155.531 685.486C155.967 684.88 156.589 684.408 157.396 684.07C158.21 683.731 159.122 683.562 160.131 683.562C161.146 683.562 162.051 683.747 162.846 684.119C163.64 684.483 164.255 685.001 164.691 685.671C165.134 686.342 165.355 687.104 165.355 687.956H162.426C162.426 687.305 162.221 686.801 161.81 686.443C161.4 686.078 160.824 685.896 160.082 685.896C159.366 685.896 158.809 686.049 158.412 686.355C158.015 686.654 157.816 687.051 157.816 687.546C157.816 688.009 158.047 688.396 158.51 688.708C158.978 689.021 159.665 689.314 160.57 689.587C162.237 690.089 163.451 690.71 164.213 691.453C164.974 692.195 165.355 693.119 165.355 694.226C165.355 695.456 164.89 696.423 163.959 697.126C163.028 697.823 161.775 698.171 160.199 698.171C159.105 698.171 158.109 697.973 157.211 697.576C156.312 697.172 155.626 696.622 155.15 695.925C154.682 695.229 154.447 694.421 154.447 693.503H157.387C157.387 695.072 158.324 695.857 160.199 695.857C160.896 695.857 161.439 695.717 161.83 695.437C162.221 695.15 162.416 694.753 162.416 694.245ZM173.49 696.902C172.793 697.748 171.83 698.171 170.599 698.171C169.467 698.171 168.601 697.846 168.002 697.195C167.409 696.544 167.107 695.59 167.094 694.333V687.41H169.916V694.236C169.916 695.336 170.417 695.886 171.42 695.886C172.377 695.886 173.034 695.554 173.392 694.89V687.41H176.224V697.976H173.568L173.49 696.902ZM187.875 692.79C187.875 694.483 187.514 695.805 186.791 696.755C186.068 697.699 185.059 698.171 183.764 698.171C182.618 698.171 181.703 697.732 181.019 696.853L180.892 697.976H178.353V682.976H181.176V688.357C181.827 687.595 182.683 687.214 183.744 687.214C185.033 687.214 186.042 687.689 186.771 688.64C187.507 689.584 187.875 690.915 187.875 692.634V692.79ZM185.053 692.585C185.053 691.518 184.883 690.74 184.545 690.251C184.206 689.757 183.702 689.509 183.031 689.509C182.133 689.509 181.514 689.877 181.176 690.613V694.783C181.521 695.525 182.146 695.896 183.051 695.896C183.962 695.896 184.561 695.447 184.848 694.548C184.984 694.119 185.053 693.464 185.053 692.585ZM192.269 687.41L192.357 688.591C193.106 687.673 194.118 687.214 195.394 687.214C196.755 687.214 197.689 687.751 198.197 688.826C198.939 687.751 199.997 687.214 201.371 687.214C202.517 687.214 203.37 687.55 203.93 688.22C204.489 688.884 204.769 689.887 204.769 691.228V697.976H201.937V691.238C201.937 690.639 201.82 690.203 201.586 689.929C201.351 689.649 200.938 689.509 200.346 689.509C199.499 689.509 198.913 689.913 198.588 690.72L198.598 697.976H195.775V691.247C195.775 690.635 195.655 690.193 195.414 689.919C195.173 689.646 194.763 689.509 194.183 689.509C193.383 689.509 192.803 689.841 192.445 690.505V697.976H189.623V687.41H192.269ZM209.926 697.976H207.094V687.41H209.926V697.976ZM206.928 684.675C206.928 684.252 207.068 683.904 207.348 683.63C207.634 683.357 208.021 683.22 208.51 683.22C208.991 683.22 209.376 683.357 209.662 683.63C209.948 683.904 210.092 684.252 210.092 684.675C210.092 685.105 209.945 685.456 209.652 685.73C209.366 686.003 208.985 686.14 208.51 686.14C208.034 686.14 207.65 686.003 207.357 685.73C207.071 685.456 206.928 685.105 206.928 684.675ZM215.639 684.812V687.41H217.445V689.48H215.639V694.753C215.639 695.144 215.713 695.424 215.863 695.593C216.013 695.762 216.299 695.847 216.723 695.847C217.035 695.847 217.312 695.824 217.553 695.779V697.917C216.999 698.087 216.43 698.171 215.844 698.171C213.864 698.171 212.855 697.172 212.816 695.173V689.48H211.273V687.41H212.816V684.812H215.639Z" fill="white"/>
<rect y="518" width="375" height="8" fill="#F4F4FA"/>
<rect y="456" width="375" height="62" fill="white"/>
<path d="M66.3203 491V479.625H69.5312C70.5208 479.625 71.3958 479.844 72.1562 480.281C72.9167 480.719 73.5026 481.341 73.9141 482.148C74.3307 482.956 74.5417 483.883 74.5469 484.93V485.656C74.5469 486.729 74.3385 487.669 73.9219 488.477C73.5104 489.284 72.9193 489.904 72.1484 490.336C71.3828 490.768 70.4896 490.99 69.4688 491H66.3203ZM67.8203 480.859V489.773H69.3984C70.5547 489.773 71.4531 489.414 72.0938 488.695C72.7396 487.977 73.0625 486.953 73.0625 485.625V484.961C73.0625 483.669 72.7578 482.667 72.1484 481.953C71.5443 481.234 70.6849 480.87 69.5703 480.859H67.8203ZM80.1016 491.156C78.9557 491.156 78.0234 490.781 77.3047 490.031C76.5859 489.276 76.2266 488.268 76.2266 487.008V486.742C76.2266 485.904 76.3854 485.156 76.7031 484.5C77.026 483.839 77.474 483.323 78.0469 482.953C78.625 482.578 79.25 482.391 79.9219 482.391C81.0208 482.391 81.875 482.753 82.4844 483.477C83.0938 484.201 83.3984 485.237 83.3984 486.586V487.188H77.6719C77.6927 488.021 77.9349 488.695 78.3984 489.211C78.8672 489.721 79.4609 489.977 80.1797 489.977C80.6901 489.977 81.1224 489.872 81.4766 489.664C81.8307 489.456 82.1406 489.18 82.4062 488.836L83.2891 489.523C82.5807 490.612 81.5182 491.156 80.1016 491.156ZM79.9219 483.578C79.3385 483.578 78.849 483.792 78.4531 484.219C78.0573 484.641 77.8125 485.234 77.7188 486H81.9531V485.891C81.9115 485.156 81.7135 484.589 81.3594 484.188C81.0052 483.781 80.526 483.578 79.9219 483.578ZM90.2969 490.164C89.7344 490.826 88.9089 491.156 87.8203 491.156C86.9193 491.156 86.2318 490.896 85.7578 490.375C85.2891 489.849 85.0521 489.073 85.0469 488.047V482.547H86.4922V488.008C86.4922 489.289 87.013 489.93 88.0547 489.93C89.1589 489.93 89.8932 489.518 90.2578 488.695V482.547H91.7031V491H90.3281L90.2969 490.164ZM95.8672 480.5V482.547H97.4453V483.664H95.8672V488.906C95.8672 489.245 95.9375 489.5 96.0781 489.672C96.2188 489.839 96.4583 489.922 96.7969 489.922C96.9635 489.922 97.1927 489.891 97.4844 489.828V491C97.1042 491.104 96.7344 491.156 96.375 491.156C95.7292 491.156 95.2422 490.961 94.9141 490.57C94.5859 490.18 94.4219 489.625 94.4219 488.906V483.664H92.8828V482.547H94.4219V480.5H95.8672ZM104.062 488.758C104.062 488.367 103.914 488.065 103.617 487.852C103.326 487.633 102.812 487.445 102.078 487.289C101.349 487.133 100.768 486.945 100.336 486.727C99.9089 486.508 99.5911 486.247 99.3828 485.945C99.1797 485.643 99.0781 485.284 99.0781 484.867C99.0781 484.174 99.3698 483.589 99.9531 483.109C100.542 482.63 101.292 482.391 102.203 482.391C103.161 482.391 103.938 482.638 104.531 483.133C105.13 483.628 105.43 484.26 105.43 485.031H103.977C103.977 484.635 103.807 484.294 103.469 484.008C103.135 483.721 102.714 483.578 102.203 483.578C101.677 483.578 101.266 483.693 100.969 483.922C100.672 484.151 100.523 484.451 100.523 484.82C100.523 485.169 100.661 485.432 100.938 485.609C101.214 485.786 101.711 485.956 102.43 486.117C103.154 486.279 103.74 486.471 104.188 486.695C104.635 486.919 104.966 487.19 105.18 487.508C105.398 487.82 105.508 488.203 105.508 488.656C105.508 489.411 105.206 490.018 104.602 490.477C103.997 490.93 103.214 491.156 102.25 491.156C101.573 491.156 100.974 491.036 100.453 490.797C99.9323 490.557 99.5234 490.224 99.2266 489.797C98.9349 489.365 98.7891 488.898 98.7891 488.398H100.234C100.26 488.883 100.453 489.268 100.812 489.555C101.177 489.836 101.656 489.977 102.25 489.977C102.797 489.977 103.234 489.867 103.562 489.648C103.896 489.424 104.062 489.128 104.062 488.758ZM110.781 489.977C111.297 489.977 111.747 489.82 112.133 489.508C112.518 489.195 112.732 488.805 112.773 488.336H114.141C114.115 488.82 113.948 489.281 113.641 489.719C113.333 490.156 112.922 490.505 112.406 490.766C111.896 491.026 111.354 491.156 110.781 491.156C109.63 491.156 108.714 490.773 108.031 490.008C107.354 489.237 107.016 488.185 107.016 486.852V486.609C107.016 485.786 107.167 485.055 107.469 484.414C107.771 483.773 108.203 483.276 108.766 482.922C109.333 482.568 110.003 482.391 110.773 482.391C111.721 482.391 112.508 482.674 113.133 483.242C113.763 483.81 114.099 484.547 114.141 485.453H112.773C112.732 484.906 112.523 484.458 112.148 484.109C111.779 483.755 111.32 483.578 110.773 483.578C110.039 483.578 109.469 483.844 109.062 484.375C108.661 484.901 108.461 485.664 108.461 486.664V486.938C108.461 487.911 108.661 488.661 109.062 489.188C109.464 489.714 110.036 489.977 110.781 489.977ZM117.211 483.57C117.852 482.784 118.685 482.391 119.711 482.391C121.497 482.391 122.398 483.398 122.414 485.414V491H120.969V485.406C120.964 484.797 120.823 484.346 120.547 484.055C120.276 483.763 119.852 483.617 119.273 483.617C118.805 483.617 118.393 483.742 118.039 483.992C117.685 484.242 117.409 484.57 117.211 484.977V491H115.766V479H117.211V483.57ZM128.086 491.156C126.94 491.156 126.008 490.781 125.289 490.031C124.57 489.276 124.211 488.268 124.211 487.008V486.742C124.211 485.904 124.37 485.156 124.688 484.5C125.01 483.839 125.458 483.323 126.031 482.953C126.609 482.578 127.234 482.391 127.906 482.391C129.005 482.391 129.859 482.753 130.469 483.477C131.078 484.201 131.383 485.237 131.383 486.586V487.188H125.656C125.677 488.021 125.919 488.695 126.383 489.211C126.852 489.721 127.445 489.977 128.164 489.977C128.674 489.977 129.107 489.872 129.461 489.664C129.815 489.456 130.125 489.18 130.391 488.836L131.273 489.523C130.565 490.612 129.503 491.156 128.086 491.156ZM127.906 483.578C127.323 483.578 126.833 483.792 126.438 484.219C126.042 484.641 125.797 485.234 125.703 486H129.938V485.891C129.896 485.156 129.698 484.589 129.344 484.188C128.99 483.781 128.51 483.578 127.906 483.578Z" fill="black"/>
<circle cx="40" cy="487" r="12" fill="black"/>
<circle cx="40" cy="487" r="10" fill="white"/>
<rect y="394" width="375" height="62" fill="white"/>
<line x1="15" y1="455.5" x2="359" y2="455.5" stroke="#D8D8E4"/>
<path d="M73.2344 424.867C73.2344 426.154 72.9401 427.19 72.3516 427.977C71.763 428.763 70.9661 429.156 69.9609 429.156C68.9349 429.156 68.1276 428.831 67.5391 428.18V432.25H66.0938V420.547H67.4141L67.4844 421.484C68.0729 420.755 68.8906 420.391 69.9375 420.391C70.9531 420.391 71.7552 420.773 72.3438 421.539C72.9375 422.305 73.2344 423.37 73.2344 424.734V424.867ZM71.7891 424.703C71.7891 423.75 71.5859 422.997 71.1797 422.445C70.7734 421.893 70.2161 421.617 69.5078 421.617C68.6328 421.617 67.9766 422.005 67.5391 422.781V426.82C67.9714 427.591 68.6328 427.977 69.5234 427.977C70.2161 427.977 70.7656 427.703 71.1719 427.156C71.5833 426.604 71.7891 425.786 71.7891 424.703ZM77.75 426.883L79.7188 420.547H81.2656L77.8672 430.305C77.3411 431.711 76.5052 432.414 75.3594 432.414L75.0859 432.391L74.5469 432.289V431.117L74.9375 431.148C75.4271 431.148 75.8073 431.049 76.0781 430.852C76.3542 430.654 76.5807 430.292 76.7578 429.766L77.0781 428.906L74.0625 420.547H75.6406L77.75 426.883ZM85.8438 427.977C86.3594 427.977 86.8099 427.82 87.1953 427.508C87.5807 427.195 87.7943 426.805 87.8359 426.336H89.2031C89.1771 426.82 89.0104 427.281 88.7031 427.719C88.3958 428.156 87.9844 428.505 87.4688 428.766C86.9583 429.026 86.4167 429.156 85.8438 429.156C84.6927 429.156 83.776 428.773 83.0938 428.008C82.4167 427.237 82.0781 426.185 82.0781 424.852V424.609C82.0781 423.786 82.2292 423.055 82.5312 422.414C82.8333 421.773 83.2656 421.276 83.8281 420.922C84.3958 420.568 85.0651 420.391 85.8359 420.391C86.7839 420.391 87.5703 420.674 88.1953 421.242C88.8255 421.81 89.1615 422.547 89.2031 423.453H87.8359C87.7943 422.906 87.5859 422.458 87.2109 422.109C86.8411 421.755 86.3828 421.578 85.8359 421.578C85.1016 421.578 84.5312 421.844 84.125 422.375C83.724 422.901 83.5234 423.664 83.5234 424.664V424.938C83.5234 425.911 83.724 426.661 84.125 427.188C84.526 427.714 85.099 427.977 85.8438 427.977ZM94.2188 427.977C94.7344 427.977 95.1849 427.82 95.5703 427.508C95.9557 427.195 96.1693 426.805 96.2109 426.336H97.5781C97.5521 426.82 97.3854 427.281 97.0781 427.719C96.7708 428.156 96.3594 428.505 95.8438 428.766C95.3333 429.026 94.7917 429.156 94.2188 429.156C93.0677 429.156 92.151 428.773 91.4688 428.008C90.7917 427.237 90.4531 426.185 90.4531 424.852V424.609C90.4531 423.786 90.6042 423.055 90.9062 422.414C91.2083 421.773 91.6406 421.276 92.2031 420.922C92.7708 420.568 93.4401 420.391 94.2109 420.391C95.1589 420.391 95.9453 420.674 96.5703 421.242C97.2005 421.81 97.5365 422.547 97.5781 423.453H96.2109C96.1693 422.906 95.9609 422.458 95.5859 422.109C95.2161 421.755 94.7578 421.578 94.2109 421.578C93.4766 421.578 92.9062 421.844 92.5 422.375C92.099 422.901 91.8984 423.664 91.8984 424.664V424.938C91.8984 425.911 92.099 426.661 92.5 427.188C92.901 427.714 93.474 427.977 94.2188 427.977ZM101.836 425.398H100.781V429H99.3281V420.547H100.781V424.125H101.727L104.57 420.547H106.32L102.977 424.609L106.602 429H104.766L101.836 425.398ZM113.312 420.547H114.758V429H113.312V422.836L109.414 429H107.969V420.547H109.414V426.719L113.312 420.547ZM122.547 420.547H123.992V429H122.547V422.836L118.648 429H117.203V420.547H118.648V426.719L122.547 420.547ZM122.938 417.469C122.938 418.099 122.721 418.607 122.289 418.992C121.862 419.372 121.299 419.562 120.602 419.562C119.904 419.562 119.339 419.37 118.906 418.984C118.474 418.599 118.258 418.094 118.258 417.469H119.438C119.438 417.833 119.536 418.12 119.734 418.328C119.932 418.531 120.221 418.633 120.602 418.633C120.966 418.633 121.25 418.531 121.453 418.328C121.661 418.125 121.766 417.839 121.766 417.469H122.938Z" fill="black"/>
<circle cx="40" cy="425" r="12" fill="black"/>
<circle cx="40" cy="425" r="10" fill="white"/>
<rect y="332" width="375" height="62" fill="white"/>
<line x1="15" y1="393.5" x2="359" y2="393.5" stroke="#D8D8E4"/>
<path d="M72.5938 361.977H67.8203V367H66.3203V355.625H73.3672V356.859H67.8203V360.75H72.5938V361.977ZM78.8203 359.844C78.6016 359.807 78.3646 359.789 78.1094 359.789C77.1615 359.789 76.5182 360.193 76.1797 361V367H74.7344V358.547H76.1406L76.1641 359.523C76.638 358.768 77.3099 358.391 78.1797 358.391C78.4609 358.391 78.6745 358.427 78.8203 358.5V359.844ZM85.0625 367C84.9792 366.833 84.9115 366.536 84.8594 366.109C84.1875 366.807 83.3854 367.156 82.4531 367.156C81.6198 367.156 80.9349 366.922 80.3984 366.453C79.8672 365.979 79.6016 365.38 79.6016 364.656C79.6016 363.776 79.9349 363.094 80.6016 362.609C81.2734 362.12 82.2161 361.875 83.4297 361.875H84.8359V361.211C84.8359 360.706 84.6849 360.305 84.3828 360.008C84.0807 359.706 83.6354 359.555 83.0469 359.555C82.5312 359.555 82.099 359.685 81.75 359.945C81.401 360.206 81.2266 360.521 81.2266 360.891H79.7734C79.7734 360.469 79.9219 360.062 80.2188 359.672C80.5208 359.276 80.9271 358.964 81.4375 358.734C81.9531 358.505 82.5182 358.391 83.1328 358.391C84.1068 358.391 84.8698 358.635 85.4219 359.125C85.974 359.609 86.2604 360.279 86.2812 361.133V365.023C86.2812 365.799 86.3802 366.417 86.5781 366.875V367H85.0625ZM82.6641 365.898C83.1172 365.898 83.5469 365.781 83.9531 365.547C84.3594 365.312 84.6536 365.008 84.8359 364.633V362.898H83.7031C81.9323 362.898 81.0469 363.417 81.0469 364.453C81.0469 364.906 81.1979 365.26 81.5 365.516C81.8021 365.771 82.1901 365.898 82.6641 365.898ZM89.9141 358.547L89.9609 359.609C90.6068 358.797 91.4505 358.391 92.4922 358.391C94.2786 358.391 95.1797 359.398 95.1953 361.414V367H93.75V361.406C93.7448 360.797 93.6042 360.346 93.3281 360.055C93.0573 359.763 92.6328 359.617 92.0547 359.617C91.5859 359.617 91.1745 359.742 90.8203 359.992C90.4661 360.242 90.1901 360.57 89.9922 360.977V367H88.5469V358.547H89.9141ZM100.766 365.977C101.281 365.977 101.732 365.82 102.117 365.508C102.503 365.195 102.716 364.805 102.758 364.336H104.125C104.099 364.82 103.932 365.281 103.625 365.719C103.318 366.156 102.906 366.505 102.391 366.766C101.88 367.026 101.339 367.156 100.766 367.156C99.6146 367.156 98.6979 366.773 98.0156 366.008C97.3385 365.237 97 364.185 97 362.852V362.609C97 361.786 97.151 361.055 97.4531 360.414C97.7552 359.773 98.1875 359.276 98.75 358.922C99.3177 358.568 99.987 358.391 100.758 358.391C101.706 358.391 102.492 358.674 103.117 359.242C103.747 359.81 104.083 360.547 104.125 361.453H102.758C102.716 360.906 102.508 360.458 102.133 360.109C101.763 359.755 101.305 359.578 100.758 359.578C100.023 359.578 99.4531 359.844 99.0469 360.375C98.6458 360.901 98.4453 361.664 98.4453 362.664V362.938C98.4453 363.911 98.6458 364.661 99.0469 365.188C99.4479 365.714 100.021 365.977 100.766 365.977ZM101 367.07L100.906 367.477C101.703 367.617 102.102 368.068 102.102 368.828C102.102 369.333 101.893 369.732 101.477 370.023C101.06 370.32 100.479 370.469 99.7344 370.469L99.6797 369.633C100.091 369.633 100.409 369.565 100.633 369.43C100.862 369.294 100.977 369.104 100.977 368.859C100.977 368.63 100.893 368.461 100.727 368.352C100.56 368.242 100.221 368.164 99.7109 368.117L99.9609 367.07H101ZM110.969 367C110.885 366.833 110.818 366.536 110.766 366.109C110.094 366.807 109.292 367.156 108.359 367.156C107.526 367.156 106.841 366.922 106.305 366.453C105.773 365.979 105.508 365.38 105.508 364.656C105.508 363.776 105.841 363.094 106.508 362.609C107.18 362.12 108.122 361.875 109.336 361.875H110.742V361.211C110.742 360.706 110.591 360.305 110.289 360.008C109.987 359.706 109.542 359.555 108.953 359.555C108.438 359.555 108.005 359.685 107.656 359.945C107.307 360.206 107.133 360.521 107.133 360.891H105.68C105.68 360.469 105.828 360.062 106.125 359.672C106.427 359.276 106.833 358.964 107.344 358.734C107.859 358.505 108.424 358.391 109.039 358.391C110.013 358.391 110.776 358.635 111.328 359.125C111.88 359.609 112.167 360.279 112.188 361.133V365.023C112.188 365.799 112.286 366.417 112.484 366.875V367H110.969ZM108.57 365.898C109.023 365.898 109.453 365.781 109.859 365.547C110.266 365.312 110.56 365.008 110.742 364.633V362.898H109.609C107.839 362.898 106.953 363.417 106.953 364.453C106.953 364.906 107.104 365.26 107.406 365.516C107.708 365.771 108.096 365.898 108.57 365.898ZM116.023 367H114.578V358.547H116.023V367ZM114.461 356.305C114.461 356.07 114.531 355.872 114.672 355.711C114.818 355.549 115.031 355.469 115.312 355.469C115.594 355.469 115.807 355.549 115.953 355.711C116.099 355.872 116.172 356.07 116.172 356.305C116.172 356.539 116.099 356.734 115.953 356.891C115.807 357.047 115.594 357.125 115.312 357.125C115.031 357.125 114.818 357.047 114.672 356.891C114.531 356.734 114.461 356.539 114.461 356.305ZM123.266 364.758C123.266 364.367 123.117 364.065 122.82 363.852C122.529 363.633 122.016 363.445 121.281 363.289C120.552 363.133 119.971 362.945 119.539 362.727C119.112 362.508 118.794 362.247 118.586 361.945C118.383 361.643 118.281 361.284 118.281 360.867C118.281 360.174 118.573 359.589 119.156 359.109C119.745 358.63 120.495 358.391 121.406 358.391C122.365 358.391 123.141 358.638 123.734 359.133C124.333 359.628 124.633 360.26 124.633 361.031H123.18C123.18 360.635 123.01 360.294 122.672 360.008C122.339 359.721 121.917 359.578 121.406 359.578C120.88 359.578 120.469 359.693 120.172 359.922C119.875 360.151 119.727 360.451 119.727 360.82C119.727 361.169 119.865 361.432 120.141 361.609C120.417 361.786 120.914 361.956 121.633 362.117C122.357 362.279 122.943 362.471 123.391 362.695C123.839 362.919 124.169 363.19 124.383 363.508C124.602 363.82 124.711 364.203 124.711 364.656C124.711 365.411 124.409 366.018 123.805 366.477C123.201 366.93 122.417 367.156 121.453 367.156C120.776 367.156 120.177 367.036 119.656 366.797C119.135 366.557 118.727 366.224 118.43 365.797C118.138 365.365 117.992 364.898 117.992 364.398H119.438C119.464 364.883 119.656 365.268 120.016 365.555C120.38 365.836 120.859 365.977 121.453 365.977C122 365.977 122.438 365.867 122.766 365.648C123.099 365.424 123.266 365.128 123.266 364.758Z" fill="black"/>
<circle cx="40" cy="363" r="12" fill="black"/>
<circle cx="40" cy="363" r="10" fill="white"/>
<rect y="270" width="375" height="62" fill="white"/>
<line x1="15" y1="331.5" x2="359" y2="331.5" stroke="#D8D8E4"/>
<path d="M77.5448 299.864V295.624H82.1368V299.864H77.5448ZM71.7368 299.864V295.624H76.3128V299.864H71.7368ZM77.5448 294.456V291.608H76.3128V294.456H70.5688V302.024H71.7368V301.032H76.3128V306.216H77.5448V301.032H82.1368V301.944H83.3528V294.456H77.5448ZM96.3448 295.48C95.5288 297.736 94.4088 299.576 92.9368 301.064C91.4168 299.512 90.2808 297.624 89.4968 295.48H96.3448ZM100.185 295.48V294.312H93.5448V291.608H92.3448V294.312H85.8328V295.48H88.1848C89.0968 298.024 90.3448 300.184 91.9928 301.928C90.2808 303.336 88.1848 304.36 85.6408 305.096C85.8968 305.368 86.2808 305.944 86.3928 306.232C88.9688 305.4 91.1288 304.296 92.8888 302.792C94.6488 304.376 96.8248 305.528 99.4968 306.216C99.6728 305.88 100.057 305.336 100.345 305.064C97.7528 304.456 95.5928 303.368 93.8488 301.896C95.5128 300.216 96.7768 298.104 97.7208 295.48H100.185Z" fill="black"/>
<circle cx="40" cy="301" r="12" fill="black"/>
<circle cx="40" cy="301" r="10" fill="white"/>
<rect y="208" width="375" height="62" fill="white"/>
<line x1="15" y1="269.5" x2="359" y2="269.5" stroke="#D8D8E4"/>
<path d="M69.08 241.832V237.368H77.016V241.832H69.08ZM77.016 231.88V236.2H69.08V231.88H77.016ZM67.88 230.712V244.04H69.08V243H77.016V243.976H78.264V230.712H67.88ZM95.944 234.152V232.968H89.608V229.624H88.376V232.968H82.088V234.152H87.64C86.296 236.888 83.976 239.48 81.544 240.744C81.816 240.968 82.216 241.416 82.392 241.704C84.744 240.344 86.904 237.928 88.376 235.16V240.056H85.256V241.24H88.376V244.216H89.608V241.24H92.648V240.056H89.608V235.16C91.048 237.928 93.192 240.36 95.608 241.688C95.784 241.352 96.2 240.888 96.488 240.648C93.976 239.432 91.672 236.888 90.344 234.152H95.944ZM102.888 230.168H98.52V231.128H102.888V230.168ZM101.928 239.832V242.504H99.432V239.832H101.928ZM102.968 238.856H98.392V244.2H99.432V243.48H102.968V238.856ZM98.424 237.624H102.904V236.68H98.424V237.624ZM102.904 234.504H98.424V235.448H102.904V234.504ZM97.672 233.272H103.448V232.296H97.672V233.272ZM110.232 239.576V242.408H105.784V239.576H110.232ZM104.664 244.216H105.784V243.48H110.232V244.152H111.384V238.52H104.664V244.216ZM109.816 233.912V236.232H106.744C106.888 235.56 107.032 234.76 107.176 233.912H109.816ZM110.952 236.232V232.888H107.352C107.448 232.328 107.544 231.768 107.624 231.24H111.848V230.2H103.992V231.24H106.456C106.376 231.768 106.296 232.328 106.2 232.888H104.232V233.912H106.04C105.896 234.744 105.736 235.56 105.592 236.232H103.512V237.288H112.36V236.232H110.952Z" fill="black"/>
<circle cx="40" cy="239" r="12" fill="black"/>
<circle cx="40" cy="239" r="10" fill="white"/>
<rect y="146" width="375" height="62" fill="white"/>
<line x1="15" y1="207.5" x2="359" y2="207.5" stroke="#D8D8E4"/>
<path d="M72.75 175.742H67.8203V179.773H73.5469V181H66.3203V169.625H73.4688V170.859H67.8203V174.516H72.75V175.742ZM80.1094 178.758C80.1094 178.367 79.9609 178.065 79.6641 177.852C79.3724 177.633 78.8594 177.445 78.125 177.289C77.3958 177.133 76.8151 176.945 76.3828 176.727C75.9557 176.508 75.638 176.247 75.4297 175.945C75.2266 175.643 75.125 175.284 75.125 174.867C75.125 174.174 75.4167 173.589 76 173.109C76.5885 172.63 77.3385 172.391 78.25 172.391C79.2083 172.391 79.9844 172.638 80.5781 173.133C81.1771 173.628 81.4766 174.26 81.4766 175.031H80.0234C80.0234 174.635 79.8542 174.294 79.5156 174.008C79.1823 173.721 78.7604 173.578 78.25 173.578C77.724 173.578 77.3125 173.693 77.0156 173.922C76.7188 174.151 76.5703 174.451 76.5703 174.82C76.5703 175.169 76.7083 175.432 76.9844 175.609C77.2604 175.786 77.7578 175.956 78.4766 176.117C79.2005 176.279 79.7865 176.471 80.2344 176.695C80.6823 176.919 81.013 177.19 81.2266 177.508C81.4453 177.82 81.5547 178.203 81.5547 178.656C81.5547 179.411 81.2526 180.018 80.6484 180.477C80.0443 180.93 79.2604 181.156 78.2969 181.156C77.6198 181.156 77.0208 181.036 76.5 180.797C75.9792 180.557 75.5703 180.224 75.2734 179.797C74.9818 179.365 74.8359 178.898 74.8359 178.398H76.2812C76.3073 178.883 76.5 179.268 76.8594 179.555C77.224 179.836 77.7031 179.977 78.2969 179.977C78.8438 179.977 79.2812 179.867 79.6094 179.648C79.9427 179.424 80.1094 179.128 80.1094 178.758ZM90.5781 176.867C90.5781 178.154 90.2839 179.19 89.6953 179.977C89.1068 180.763 88.3099 181.156 87.3047 181.156C86.2786 181.156 85.4714 180.831 84.8828 180.18V184.25H83.4375V172.547H84.7578L84.8281 173.484C85.4167 172.755 86.2344 172.391 87.2812 172.391C88.2969 172.391 89.099 172.773 89.6875 173.539C90.2812 174.305 90.5781 175.37 90.5781 176.734V176.867ZM89.1328 176.703C89.1328 175.75 88.9297 174.997 88.5234 174.445C88.1172 173.893 87.5599 173.617 86.8516 173.617C85.9766 173.617 85.3203 174.005 84.8828 174.781V178.82C85.3151 179.591 85.9766 179.977 86.8672 179.977C87.5599 179.977 88.1094 179.703 88.5156 179.156C88.9271 178.604 89.1328 177.786 89.1328 176.703ZM97.6406 181C97.5573 180.833 97.4896 180.536 97.4375 180.109C96.7656 180.807 95.9635 181.156 95.0312 181.156C94.1979 181.156 93.513 180.922 92.9766 180.453C92.4453 179.979 92.1797 179.38 92.1797 178.656C92.1797 177.776 92.513 177.094 93.1797 176.609C93.8516 176.12 94.7943 175.875 96.0078 175.875H97.4141V175.211C97.4141 174.706 97.263 174.305 96.9609 174.008C96.6589 173.706 96.2135 173.555 95.625 173.555C95.1094 173.555 94.6771 173.685 94.3281 173.945C93.9792 174.206 93.8047 174.521 93.8047 174.891H92.3516C92.3516 174.469 92.5 174.062 92.7969 173.672C93.099 173.276 93.5052 172.964 94.0156 172.734C94.5312 172.505 95.0964 172.391 95.7109 172.391C96.6849 172.391 97.4479 172.635 98 173.125C98.5521 173.609 98.8385 174.279 98.8594 175.133V179.023C98.8594 179.799 98.9583 180.417 99.1562 180.875V181H97.6406ZM95.2422 179.898C95.6953 179.898 96.125 179.781 96.5312 179.547C96.9375 179.312 97.2318 179.008 97.4141 178.633V176.898H96.2812C94.5104 176.898 93.625 177.417 93.625 178.453C93.625 178.906 93.776 179.26 94.0781 179.516C94.3802 179.771 94.7682 179.898 95.2422 179.898ZM102.492 172.547L102.539 173.609C103.185 172.797 104.029 172.391 105.07 172.391C106.857 172.391 107.758 173.398 107.773 175.414V181H106.328V175.406C106.323 174.797 106.182 174.346 105.906 174.055C105.635 173.763 105.211 173.617 104.633 173.617C104.164 173.617 103.753 173.742 103.398 173.992C103.044 174.242 102.768 174.57 102.57 174.977V181H101.125V172.547H102.492ZM107.273 169.25C107.273 169.812 107.112 170.268 106.789 170.617C106.471 170.966 106.073 171.141 105.594 171.141C105.38 171.141 105.195 171.115 105.039 171.062C104.883 171.01 104.677 170.904 104.422 170.742C104.172 170.581 103.99 170.484 103.875 170.453C103.766 170.417 103.638 170.398 103.492 170.398C103.279 170.398 103.096 170.482 102.945 170.648C102.794 170.81 102.719 171.018 102.719 171.273L101.75 171.219C101.75 170.661 101.906 170.201 102.219 169.836C102.536 169.471 102.938 169.289 103.422 169.289C103.604 169.289 103.768 169.315 103.914 169.367C104.06 169.419 104.258 169.521 104.508 169.672C104.758 169.823 104.948 169.922 105.078 169.969C105.214 170.016 105.362 170.039 105.523 170.039C105.747 170.039 105.932 169.951 106.078 169.773C106.229 169.596 106.305 169.391 106.305 169.156L107.273 169.25ZM109.57 176.695C109.57 175.867 109.732 175.122 110.055 174.461C110.383 173.799 110.836 173.289 111.414 172.93C111.997 172.57 112.661 172.391 113.406 172.391C114.557 172.391 115.487 172.789 116.195 173.586C116.909 174.383 117.266 175.443 117.266 176.766V176.867C117.266 177.69 117.107 178.43 116.789 179.086C116.477 179.737 116.026 180.245 115.438 180.609C114.854 180.974 114.182 181.156 113.422 181.156C112.276 181.156 111.346 180.758 110.633 179.961C109.924 179.164 109.57 178.109 109.57 176.797V176.695ZM111.023 176.867C111.023 177.805 111.24 178.557 111.672 179.125C112.109 179.693 112.693 179.977 113.422 179.977C114.156 179.977 114.74 179.69 115.172 179.117C115.604 178.539 115.82 177.732 115.82 176.695C115.82 175.768 115.599 175.018 115.156 174.445C114.719 173.867 114.135 173.578 113.406 173.578C112.693 173.578 112.117 173.862 111.68 174.43C111.242 174.997 111.023 175.81 111.023 176.867ZM120.648 181H119.203V169H120.648V181Z" fill="black"/>
<circle cx="40" cy="177" r="12" fill="black"/>
<circle cx="40" cy="177" r="10" fill="white"/>
<rect y="84" width="375" height="62" fill="white"/>
<line x1="15" y1="145.5" x2="359" y2="145.5" stroke="#D8D8E4"/>
<path d="M72.75 113.742H67.8203V117.773H73.5469V119H66.3203V107.625H73.4688V108.859H67.8203V112.516H72.75V113.742ZM76.5547 110.547L76.6016 111.609C77.2474 110.797 78.0911 110.391 79.1328 110.391C80.9193 110.391 81.8203 111.398 81.8359 113.414V119H80.3906V113.406C80.3854 112.797 80.2448 112.346 79.9688 112.055C79.6979 111.763 79.2734 111.617 78.6953 111.617C78.2266 111.617 77.8151 111.742 77.4609 111.992C77.1068 112.242 76.8307 112.57 76.6328 112.977V119H75.1875V110.547H76.5547ZM83.6719 114.703C83.6719 113.385 83.9766 112.339 84.5859 111.562C85.1953 110.781 86.0026 110.391 87.0078 110.391C88.0391 110.391 88.8438 110.755 89.4219 111.484L89.4922 110.547H90.8125V118.797C90.8125 119.891 90.487 120.753 89.8359 121.383C89.1901 122.013 88.3203 122.328 87.2266 122.328C86.6172 122.328 86.0208 122.198 85.4375 121.938C84.8542 121.677 84.4089 121.32 84.1016 120.867L84.8516 120C85.4714 120.766 86.2292 121.148 87.125 121.148C87.8281 121.148 88.375 120.951 88.7656 120.555C89.1615 120.159 89.3594 119.602 89.3594 118.883V118.156C88.7812 118.823 87.9922 119.156 86.9922 119.156C86.0026 119.156 85.2005 118.758 84.5859 117.961C83.9766 117.164 83.6719 116.078 83.6719 114.703ZM85.125 114.867C85.125 115.82 85.3203 116.57 85.7109 117.117C86.1016 117.659 86.6484 117.93 87.3516 117.93C88.263 117.93 88.9323 117.516 89.3594 116.688V112.828C88.9167 112.021 88.2526 111.617 87.3672 111.617C86.6641 111.617 86.1146 111.891 85.7188 112.438C85.3229 112.984 85.125 113.794 85.125 114.867ZM94.5703 119H93.125V107H94.5703V119ZM98.4609 119H97.0156V110.547H98.4609V119ZM96.8984 108.305C96.8984 108.07 96.9688 107.872 97.1094 107.711C97.2552 107.549 97.4688 107.469 97.75 107.469C98.0312 107.469 98.2448 107.549 98.3906 107.711C98.5365 107.872 98.6094 108.07 98.6094 108.305C98.6094 108.539 98.5365 108.734 98.3906 108.891C98.2448 109.047 98.0312 109.125 97.75 109.125C97.4688 109.125 97.2552 109.047 97.1094 108.891C96.9688 108.734 96.8984 108.539 96.8984 108.305ZM105.703 116.758C105.703 116.367 105.555 116.065 105.258 115.852C104.966 115.633 104.453 115.445 103.719 115.289C102.99 115.133 102.409 114.945 101.977 114.727C101.549 114.508 101.232 114.247 101.023 113.945C100.82 113.643 100.719 113.284 100.719 112.867C100.719 112.174 101.01 111.589 101.594 111.109C102.182 110.63 102.932 110.391 103.844 110.391C104.802 110.391 105.578 110.638 106.172 111.133C106.771 111.628 107.07 112.26 107.07 113.031H105.617C105.617 112.635 105.448 112.294 105.109 112.008C104.776 111.721 104.354 111.578 103.844 111.578C103.318 111.578 102.906 111.693 102.609 111.922C102.312 112.151 102.164 112.451 102.164 112.82C102.164 113.169 102.302 113.432 102.578 113.609C102.854 113.786 103.352 113.956 104.07 114.117C104.794 114.279 105.38 114.471 105.828 114.695C106.276 114.919 106.607 115.19 106.82 115.508C107.039 115.82 107.148 116.203 107.148 116.656C107.148 117.411 106.846 118.018 106.242 118.477C105.638 118.93 104.854 119.156 103.891 119.156C103.214 119.156 102.615 119.036 102.094 118.797C101.573 118.557 101.164 118.224 100.867 117.797C100.576 117.365 100.43 116.898 100.43 116.398H101.875C101.901 116.883 102.094 117.268 102.453 117.555C102.818 117.836 103.297 117.977 103.891 117.977C104.438 117.977 104.875 117.867 105.203 117.648C105.536 117.424 105.703 117.128 105.703 116.758ZM110.477 111.57C111.117 110.784 111.951 110.391 112.977 110.391C114.763 110.391 115.664 111.398 115.68 113.414V119H114.234V113.406C114.229 112.797 114.089 112.346 113.812 112.055C113.542 111.763 113.117 111.617 112.539 111.617C112.07 111.617 111.659 111.742 111.305 111.992C110.951 112.242 110.674 112.57 110.477 112.977V119H109.031V107H110.477V111.57Z" fill="black"/>
<circle cx="40" cy="115" r="12" fill="black"/>
<circle cx="40" cy="115" r="10" fill="white"/>
<rect y="76" width="375" height="8" fill="#F4F4FA"/>
<rect width="375" height="76" fill="white"/>
<path d="M30.3332 48.7083H22.2198L25.9465 44.2829L24.9998 43.1666L19.6665 49.5L24.9998 55.8333L25.9398 54.717L22.2198 50.2916H30.3332V48.7083Z" fill="black"/>
<line x1="22.5" y1="49.5" x2="34.5" y2="49.5" stroke="black" stroke-width="3"/>
<line x1="21.6475" y1="49.5397" x2="26.6475" y2="43.5397" stroke="black" stroke-width="3"/>
<line x1="22.049" y1="49.9358" x2="26.5485" y2="55.2982" stroke="black" stroke-width="3"/>
<path d="M57.7202 50.981V56H55.373V42.4922H60.5405C62.0496 42.4922 63.2464 42.8849 64.1309 43.6704C65.0215 44.4559 65.4668 45.495 65.4668 46.7876C65.4668 48.1112 65.0308 49.141 64.1587 49.877C63.2928 50.613 62.0775 50.981 60.5127 50.981H57.7202ZM57.7202 49.0977H60.5405C61.3755 49.0977 62.0125 48.9028 62.4517 48.5132C62.8908 48.1174 63.1104 47.5483 63.1104 46.8062C63.1104 46.0763 62.8877 45.495 62.4424 45.062C61.9971 44.6229 61.3848 44.3971 60.6055 44.3848H57.7202V49.0977ZM72.564 48.0215C72.2671 47.972 71.9609 47.9473 71.6455 47.9473C70.6126 47.9473 69.9168 48.3431 69.5581 49.1348V56H67.3037V45.9619H69.4561L69.5117 47.0845C70.056 46.2124 70.8105 45.7764 71.7754 45.7764C72.097 45.7764 72.363 45.8197 72.5732 45.9062L72.564 48.0215ZM78.2231 56.1855C76.7944 56.1855 75.6348 55.7371 74.7441 54.8403C73.8597 53.9373 73.4175 52.7375 73.4175 51.2407V50.9624C73.4175 49.9604 73.6092 49.0667 73.9927 48.2812C74.3823 47.4896 74.9266 46.8742 75.6255 46.4351C76.3244 45.9959 77.1037 45.7764 77.9634 45.7764C79.3302 45.7764 80.3848 46.2124 81.127 47.0845C81.8753 47.9565 82.2495 49.1904 82.2495 50.7861V51.6953H75.6904C75.7585 52.5241 76.0337 53.1797 76.5161 53.6621C77.0047 54.1445 77.617 54.3857 78.353 54.3857C79.3859 54.3857 80.2271 53.9683 80.8765 53.1333L82.0918 54.293C81.6898 54.8929 81.1517 55.3599 80.4775 55.6938C79.8096 56.0216 79.0581 56.1855 78.2231 56.1855ZM77.9541 47.5854C77.3356 47.5854 76.8346 47.8019 76.4512 48.2349C76.0739 48.6678 75.8327 49.2708 75.7275 50.0439H80.0229V49.877C79.9735 49.1224 79.7725 48.5534 79.4199 48.1699C79.0674 47.7803 78.5788 47.5854 77.9541 47.5854ZM84.8008 56V47.6318H83.27V45.9619H84.8008V45.0435C84.8008 43.9302 85.11 43.0705 85.7285 42.4644C86.347 41.8582 87.2129 41.5552 88.3262 41.5552C88.722 41.5552 89.1426 41.6108 89.5879 41.7222L89.5322 43.4849C89.2848 43.4354 88.9972 43.4106 88.6694 43.4106C87.5933 43.4106 87.0552 43.9642 87.0552 45.0713V45.9619H89.0962V47.6318H87.0552V56H84.8008ZM94.9409 56.1855C93.5122 56.1855 92.3525 55.7371 91.4619 54.8403C90.5775 53.9373 90.1353 52.7375 90.1353 51.2407V50.9624C90.1353 49.9604 90.327 49.0667 90.7104 48.2812C91.1001 47.4896 91.6444 46.8742 92.3433 46.4351C93.0422 45.9959 93.8215 45.7764 94.6812 45.7764C96.048 45.7764 97.1025 46.2124 97.8447 47.0845C98.5931 47.9565 98.9673 49.1904 98.9673 50.7861V51.6953H92.4082C92.4762 52.5241 92.7515 53.1797 93.2339 53.6621C93.7225 54.1445 94.3348 54.3857 95.0708 54.3857C96.1037 54.3857 96.9448 53.9683 97.5942 53.1333L98.8096 54.293C98.4076 54.8929 97.8695 55.3599 97.1953 55.6938C96.5273 56.0216 95.7759 56.1855 94.9409 56.1855ZM94.6719 47.5854C94.0534 47.5854 93.5524 47.8019 93.1689 48.2349C92.7917 48.6678 92.5505 49.2708 92.4453 50.0439H96.7407V49.877C96.6912 49.1224 96.4902 48.5534 96.1377 48.1699C95.7852 47.7803 95.2965 47.5854 94.6719 47.5854ZM105.981 48.0215C105.684 47.972 105.378 47.9473 105.062 47.9473C104.03 47.9473 103.334 48.3431 102.975 49.1348V56H100.721V45.9619H102.873L102.929 47.0845C103.473 46.2124 104.228 45.7764 105.192 45.7764C105.514 45.7764 105.78 45.8197 105.99 45.9062L105.981 48.0215ZM112.661 48.0215C112.364 47.972 112.058 47.9473 111.742 47.9473C110.709 47.9473 110.014 48.3431 109.655 49.1348V56H107.4V45.9619H109.553L109.608 47.0845C110.153 46.2124 110.907 45.7764 111.872 45.7764C112.194 45.7764 112.46 45.8197 112.67 45.9062L112.661 48.0215ZM118.32 56.1855C116.891 56.1855 115.731 55.7371 114.841 54.8403C113.956 53.9373 113.514 52.7375 113.514 51.2407V50.9624C113.514 49.9604 113.706 49.0667 114.089 48.2812C114.479 47.4896 115.023 46.8742 115.722 46.4351C116.421 45.9959 117.2 45.7764 118.06 45.7764C119.427 45.7764 120.481 46.2124 121.224 47.0845C121.972 47.9565 122.346 49.1904 122.346 50.7861V51.6953H115.787C115.855 52.5241 116.13 53.1797 116.613 53.6621C117.101 54.1445 117.714 54.3857 118.45 54.3857C119.483 54.3857 120.324 53.9683 120.973 53.1333L122.188 54.293C121.786 54.8929 121.248 55.3599 120.574 55.6938C119.906 56.0216 119.155 56.1855 118.32 56.1855ZM118.051 47.5854C117.432 47.5854 116.931 47.8019 116.548 48.2349C116.171 48.6678 115.929 49.2708 115.824 50.0439H120.12V49.877C120.07 49.1224 119.869 48.5534 119.517 48.1699C119.164 47.7803 118.675 47.5854 118.051 47.5854ZM123.682 50.9067C123.682 49.3605 124.041 48.1204 124.758 47.1865C125.476 46.2464 126.438 45.7764 127.644 45.7764C128.707 45.7764 129.567 46.1475 130.223 46.8896V41.75H132.477V56H130.436L130.325 54.9609C129.651 55.7773 128.751 56.1855 127.625 56.1855C126.45 56.1855 125.497 55.7124 124.768 54.7661C124.044 53.8198 123.682 52.5334 123.682 50.9067ZM125.937 51.1016C125.937 52.1221 126.131 52.9199 126.521 53.4951C126.917 54.0641 127.477 54.3486 128.2 54.3486C129.122 54.3486 129.796 53.9373 130.223 53.1147V48.8286C129.808 48.0246 129.14 47.6226 128.219 47.6226C127.489 47.6226 126.926 47.9132 126.53 48.4946C126.134 49.0698 125.937 49.9388 125.937 51.1016ZM142.125 54.126H148.258V56H139.778V42.4922H142.125V54.126ZM155.837 56C155.738 55.8083 155.652 55.4959 155.578 55.063C154.86 55.8114 153.982 56.1855 152.943 56.1855C151.935 56.1855 151.112 55.8979 150.475 55.3228C149.838 54.7476 149.52 54.0363 149.52 53.189C149.52 52.119 149.915 51.2995 150.707 50.7305C151.505 50.1553 152.643 49.8677 154.121 49.8677H155.503V49.209C155.503 48.6895 155.358 48.2751 155.067 47.9658C154.777 47.6504 154.334 47.4927 153.741 47.4927C153.227 47.4927 152.807 47.6226 152.479 47.8823C152.151 48.1359 151.987 48.4606 151.987 48.8564H149.733C149.733 48.306 149.915 47.7926 150.28 47.3164C150.645 46.834 151.14 46.4567 151.765 46.1846C152.396 45.9124 153.097 45.7764 153.871 45.7764C155.046 45.7764 155.983 46.0732 156.682 46.667C157.381 47.2546 157.739 48.0833 157.758 49.1533V53.6807C157.758 54.5837 157.885 55.3042 158.138 55.8423V56H155.837ZM153.36 54.3765C153.806 54.3765 154.223 54.2682 154.613 54.0518C155.009 53.8353 155.306 53.5446 155.503 53.1797V51.2871H154.288C153.453 51.2871 152.825 51.4325 152.405 51.7231C151.984 52.0138 151.774 52.4251 151.774 52.957C151.774 53.39 151.916 53.7363 152.201 53.9961C152.491 54.2497 152.878 54.3765 153.36 54.3765ZM162.211 45.9619L162.276 47.1216C163.018 46.2248 163.992 45.7764 165.198 45.7764C167.289 45.7764 168.353 46.9731 168.39 49.3667V56H166.135V49.4966C166.135 48.8595 165.996 48.3895 165.718 48.0864C165.446 47.7772 164.997 47.6226 164.373 47.6226C163.463 47.6226 162.786 48.0339 162.341 48.8564V56H160.086V45.9619H162.211ZM170.301 50.9067C170.301 49.3481 170.666 48.105 171.396 47.1772C172.132 46.2433 173.106 45.7764 174.318 45.7764C175.462 45.7764 176.362 46.1753 177.018 46.9731L177.12 45.9619H179.151V55.6938C179.151 57.0112 178.74 58.0503 177.917 58.811C177.101 59.5718 175.997 59.9521 174.605 59.9521C173.869 59.9521 173.149 59.7975 172.444 59.4883C171.745 59.1852 171.213 58.7863 170.848 58.2915L171.915 56.937C172.608 57.7596 173.461 58.1709 174.476 58.1709C175.224 58.1709 175.815 57.9668 176.248 57.5586C176.681 57.1566 176.897 56.5628 176.897 55.7773V55.1001C176.248 55.8237 175.382 56.1855 174.299 56.1855C173.124 56.1855 172.162 55.7186 171.414 54.7847C170.672 53.8507 170.301 52.5581 170.301 50.9067ZM172.546 51.1016C172.546 52.1097 172.75 52.9045 173.158 53.4858C173.573 54.061 174.145 54.3486 174.875 54.3486C175.784 54.3486 176.458 53.959 176.897 53.1797V48.7637C176.47 48.0029 175.802 47.6226 174.893 47.6226C174.151 47.6226 173.573 47.9163 173.158 48.5039C172.75 49.0915 172.546 49.9574 172.546 51.1016ZM187.557 55.0166C186.895 55.7959 185.955 56.1855 184.736 56.1855C183.648 56.1855 182.822 55.867 182.259 55.23C181.703 54.5929 181.424 53.6714 181.424 52.4653V45.9619H183.679V52.4375C183.679 53.7116 184.208 54.3486 185.265 54.3486C186.36 54.3486 187.099 53.9559 187.482 53.1704V45.9619H189.737V56H187.612L187.557 55.0166ZM198.031 56C197.932 55.8083 197.845 55.4959 197.771 55.063C197.054 55.8114 196.175 56.1855 195.136 56.1855C194.128 56.1855 193.306 55.8979 192.668 55.3228C192.031 54.7476 191.713 54.0363 191.713 53.189C191.713 52.119 192.109 51.2995 192.9 50.7305C193.698 50.1553 194.836 49.8677 196.314 49.8677H197.697V49.209C197.697 48.6895 197.551 48.2751 197.261 47.9658C196.97 47.6504 196.528 47.4927 195.934 47.4927C195.421 47.4927 195 47.6226 194.672 47.8823C194.345 48.1359 194.181 48.4606 194.181 48.8564H191.926C191.926 48.306 192.109 47.7926 192.474 47.3164C192.839 46.834 193.333 46.4567 193.958 46.1846C194.589 45.9124 195.291 45.7764 196.064 45.7764C197.239 45.7764 198.176 46.0732 198.875 46.667C199.574 47.2546 199.933 48.0833 199.951 49.1533V53.6807C199.951 54.5837 200.078 55.3042 200.332 55.8423V56H198.031ZM195.554 54.3765C195.999 54.3765 196.417 54.2682 196.806 54.0518C197.202 53.8353 197.499 53.5446 197.697 53.1797V51.2871H196.481C195.646 51.2871 195.019 51.4325 194.598 51.7231C194.178 52.0138 193.967 52.4251 193.967 52.957C193.967 53.39 194.11 53.7363 194.394 53.9961C194.685 54.2497 195.071 54.3765 195.554 54.3765ZM201.918 50.9067C201.918 49.3481 202.283 48.105 203.013 47.1772C203.749 46.2433 204.723 45.7764 205.935 45.7764C207.079 45.7764 207.979 46.1753 208.635 46.9731L208.737 45.9619H210.769V55.6938C210.769 57.0112 210.357 58.0503 209.535 58.811C208.718 59.5718 207.614 59.9521 206.223 59.9521C205.487 59.9521 204.766 59.7975 204.061 59.4883C203.362 59.1852 202.83 58.7863 202.465 58.2915L203.532 56.937C204.225 57.7596 205.078 58.1709 206.093 58.1709C206.841 58.1709 207.432 57.9668 207.865 57.5586C208.298 57.1566 208.514 56.5628 208.514 55.7773V55.1001C207.865 55.8237 206.999 56.1855 205.917 56.1855C204.741 56.1855 203.78 55.7186 203.031 54.7847C202.289 53.8507 201.918 52.5581 201.918 50.9067ZM204.163 51.1016C204.163 52.1097 204.367 52.9045 204.775 53.4858C205.19 54.061 205.762 54.3486 206.492 54.3486C207.401 54.3486 208.075 53.959 208.514 53.1797V48.7637C208.087 48.0029 207.419 47.6226 206.51 47.6226C205.768 47.6226 205.19 47.9163 204.775 48.5039C204.367 49.0915 204.163 49.9574 204.163 51.1016ZM217.513 56.1855C216.084 56.1855 214.925 55.7371 214.034 54.8403C213.15 53.9373 212.708 52.7375 212.708 51.2407V50.9624C212.708 49.9604 212.899 49.0667 213.283 48.2812C213.672 47.4896 214.217 46.8742 214.916 46.4351C215.614 45.9959 216.394 45.7764 217.253 45.7764C218.62 45.7764 219.675 46.2124 220.417 47.0845C221.165 47.9565 221.54 49.1904 221.54 50.7861V51.6953H214.98C215.049 52.5241 215.324 53.1797 215.806 53.6621C216.295 54.1445 216.907 54.3857 217.643 54.3857C218.676 54.3857 219.517 53.9683 220.167 53.1333L221.382 54.293C220.98 54.8929 220.442 55.3599 219.768 55.6938C219.1 56.0216 218.348 56.1855 217.513 56.1855ZM217.244 47.5854C216.626 47.5854 216.125 47.8019 215.741 48.2349C215.364 48.6678 215.123 49.2708 215.018 50.0439H219.313V49.877C219.264 49.1224 219.062 48.5534 218.71 48.1699C218.357 47.7803 217.869 47.5854 217.244 47.5854Z" fill="black"/>
<path d="M23.9126 7.78613L20.3389 16H18.4028L21.9829 8.24316H17.3872V6.75781H23.9126V7.78613ZM25.2583 15.0986C25.2583 14.8066 25.3556 14.5697 25.5503 14.3877C25.7492 14.2057 25.9967 14.1147 26.293 14.1147C26.5934 14.1147 26.841 14.2057 27.0356 14.3877C27.2345 14.5697 27.334 14.8066 27.334 15.0986C27.334 15.3864 27.2367 15.6213 27.042 15.8032C26.8473 15.981 26.5977 16.0698 26.293 16.0698C25.9925 16.0698 25.745 15.981 25.5503 15.8032C25.3556 15.6213 25.2583 15.3864 25.2583 15.0986ZM25.2583 9.8999C25.2583 9.60791 25.3556 9.37093 25.5503 9.18896C25.7492 9.007 25.9967 8.91602 26.293 8.91602C26.5934 8.91602 26.841 9.007 27.0356 9.18896C27.2345 9.37093 27.334 9.60791 27.334 9.8999C27.334 10.1877 27.2367 10.4225 27.042 10.6045C26.8473 10.7822 26.5977 10.8711 26.293 10.8711C25.9925 10.8711 25.745 10.7822 25.5503 10.6045C25.3556 10.4225 25.2583 10.1877 25.2583 9.8999ZM30.6284 10.5664H31.606C32.0715 10.5664 32.4163 10.45 32.6406 10.2173C32.8649 9.98454 32.9771 9.67562 32.9771 9.29053C32.9771 8.91813 32.8649 8.62826 32.6406 8.4209C32.4206 8.21354 32.1159 8.10986 31.7266 8.10986C31.3753 8.10986 31.0812 8.20719 30.8442 8.40186C30.6073 8.59229 30.4888 8.84196 30.4888 9.15088H28.6543C28.6543 8.66846 28.7834 8.23682 29.0415 7.85596C29.3039 7.47087 29.6678 7.17041 30.1333 6.95459C30.603 6.73877 31.1193 6.63086 31.6821 6.63086C32.6597 6.63086 33.4256 6.86572 33.98 7.33545C34.5343 7.80094 34.8115 8.44417 34.8115 9.26514C34.8115 9.68831 34.6825 10.0776 34.4243 10.4331C34.1662 10.7886 33.8276 11.0615 33.4087 11.252C33.9292 11.4382 34.3164 11.7174 34.5703 12.0898C34.8285 12.4622 34.9575 12.9023 34.9575 13.4102C34.9575 14.2311 34.6571 14.8892 34.0562 15.3843C33.4595 15.8794 32.6681 16.127 31.6821 16.127C30.7596 16.127 30.0042 15.8836 29.416 15.397C28.832 14.9103 28.54 14.2671 28.54 13.4673H30.3745C30.3745 13.8143 30.5036 14.0978 30.7617 14.3179C31.0241 14.5379 31.3457 14.6479 31.7266 14.6479C32.1624 14.6479 32.5031 14.5337 32.7485 14.3052C32.9982 14.0724 33.123 13.7656 33.123 13.3848C33.123 12.4622 32.6152 12.001 31.5996 12.001H30.6284V10.5664ZM42.562 16H36.2271V14.7432L39.2168 11.5566C39.6273 11.1081 39.9299 10.7166 40.1245 10.3823C40.3234 10.048 40.4229 9.73063 40.4229 9.43018C40.4229 9.01969 40.3192 8.69808 40.1118 8.46533C39.9045 8.22835 39.6082 8.10986 39.2231 8.10986C38.8084 8.10986 38.4805 8.25374 38.2393 8.5415C38.0023 8.82503 37.8838 9.19954 37.8838 9.66504H36.043C36.043 9.10221 36.1763 8.58805 36.4429 8.12256C36.7137 7.65706 37.0946 7.29313 37.5854 7.03076C38.0763 6.76416 38.6328 6.63086 39.2549 6.63086C40.207 6.63086 40.9455 6.85938 41.4702 7.31641C41.9992 7.77344 42.2637 8.41878 42.2637 9.25244C42.2637 9.70947 42.1452 10.175 41.9082 10.6489C41.6712 11.1229 41.265 11.6751 40.6895 12.3057L38.5884 14.521H42.562V16Z" fill="#666666"/>
<circle cx="60" cy="12" r="4.5" stroke="#666666" stroke-width="3"/>
<path d="M62 12L59 13.7321L59 10.2679L62 12Z" fill="#666666"/>
<rect x="76" y="6" width="11" height="11" rx="1" fill="#666666"/>
<path d="M79 12.5L77 15H86L83.5 11L81 14L79 12.5Z" fill="white"/>
<rect x="98" y="6" width="12" height="9" rx="1" fill="#666666"/>
<path d="M96 8V16C96 16.5523 96.4477 17 97 17H107" stroke="#666666"/>
<path d="M100 14V7.2C100 7.1176 100.094 7.07056 100.16 7.12L104 10L107.84 7.12C107.906 7.07056 108 7.1176 108 7.2V14" stroke="white"/>
<path d="M266.5 11.5C266.5 14.2614 264.261 16.5 261.5 16.5C258.739 16.5 256.5 14.2614 256.5 11.5C256.5 8.73858 258.739 6.50001 261.5 6.50001C264.261 6.50001 266.5 8.73858 266.5 11.5Z" stroke="#666666"/>
<path d="M261.5 9.00001V11.9586C261.5 11.9851 261.511 12.0105 261.529 12.0293L263.5 14" stroke="#666666"/>
<path d="M256 7.5L259 5" stroke="#666666"/>
<path d="M267 7.50003L264 4.99999" stroke="#666666"/>
<path d="M276.5 15L282.929 8.57071C282.968 8.53166 282.968 8.46834 282.929 8.42929L280.671 6.17071C280.608 6.10771 280.5 6.15233 280.5 6.24142V16.2586C280.5 16.3477 280.608 16.3923 280.671 16.3293L282.932 14.0681C282.97 14.0301 282.971 13.9688 282.934 13.9294L276.5 7" stroke="#666666"/>
<circle cx="276" cy="11" r="1" fill="#666666"/>
<circle cx="285" cy="11" r="1" fill="#666666"/>
<path d="M297.003 12.2181L300 16.5L302.997 12.2181C303.33 11.7434 303.572 11.2118 303.713 10.6496L303.804 10.2854C303.933 9.76974 303.932 9.22759 303.803 8.71192C303.609 7.93474 303.131 7.25378 302.464 6.80941C302.157 6.60466 301.817 6.45424 301.459 6.36471L301.181 6.29536C300.406 6.10144 299.594 6.10144 298.819 6.29536L298.541 6.36471C298.183 6.45424 297.843 6.60466 297.536 6.80941C296.869 7.25378 296.391 7.93474 296.197 8.71192C296.068 9.22759 296.067 9.76974 296.196 10.2854L296.287 10.6496C296.428 11.2118 296.67 11.7434 297.003 12.2181Z" stroke="#666666"/>
<circle cx="300" cy="10" r="1.5" fill="#666666"/>
<path d="M314.944 14.1567H318.65V15H313.908V7.17969H314.944V14.1567ZM323.748 8.02832H321.234V15H320.208V8.02832H317.7V7.17969H323.748V8.02832ZM329.328 11.3853H325.939V14.1567H329.876V15H324.908V7.17969H329.822V8.02832H325.939V10.542H329.328V11.3853Z" fill="#666666"/>
<path d="M344 5L332 17H344V5Z" fill="#666666"/>
<rect x="350" y="6" width="8" height="12" rx="1" fill="#666666"/>
<rect x="352.5" y="5" width="3" height="1" fill="#666666"/>
<circle cx="40" cy="115" r="8" fill="black"/>
</g>
<defs>
<clipPath id="clip0">
<rect width="375" height="725" fill="white"/>
</clipPath>
</defs>
</svg>
