<svg width="299" height="198" viewBox="0 0 299 198" fill="none" xmlns="http://www.w3.org/2000/svg">
<g filter="url(#filter0_d)">
<path d="M4.5 28.978C4.5 20.9699 10.9919 14.478 19 14.478H280C288.008 14.478 294.5 20.9699 294.5 28.978V178.978C294.5 186.986 288.008 193.478 280 193.478H19C10.9919 193.478 4.5 186.986 4.5 178.978V28.978Z" fill="white" stroke="#666666"/>
<path d="M53.4965 84.8096H35.9692C35.3882 84.8096 34.8309 84.5649 34.42 84.1293C34.0092 83.6937 33.7783 83.1028 33.7783 82.4868V64.0674L30.9302 66.3901C30.7275 66.6055 30.4867 66.7763 30.2217 66.8929C29.9566 67.0094 29.6725 67.0694 29.3856 67.0694C29.0986 67.0694 28.8145 67.0094 28.5495 66.8929C28.2844 66.7763 28.0437 66.6055 27.841 66.3901L21.6407 59.9329C21.4376 59.718 21.2765 59.4627 21.1665 59.1818C21.0566 58.9008 21 58.5995 21 58.2953C21 57.9911 21.0566 57.6899 21.1665 57.4089C21.2765 57.1279 21.4376 56.8727 21.6407 56.6578L34.5232 43H38.1601C38.1601 45.555 41.0959 47.6455 44.7328 47.6455C48.3697 47.6455 51.3056 45.555 51.3056 43H54.9425L67.825 56.6578C68.6794 57.5637 68.6794 59.027 67.825 59.9329L61.6247 66.5063C60.7703 67.3889 59.39 67.3889 58.5355 66.5063L55.6874 64.1835V82.4868C55.6874 83.1028 55.4565 83.6937 55.0457 84.1293C54.6348 84.5649 54.0775 84.8096 53.4965 84.8096Z" fill="#EB1616"/>
<path d="M91 84.1598L98.0909 87.978L107.364 59.3417L106.273 82.8871L118.273 84.7962V46.6144C115.218 46.1053 113.364 42.1598 112.818 40.2508L116.091 41.5235H119.909V40.2508H116.091C115.655 39.2326 113 38.978 111.727 38.978C106.491 38.978 103 44.4932 101.909 47.2508L91 84.1598Z" fill="#EB1616"/>
<path d="M147.182 84.1598L140.091 87.978L130.818 59.3417L131.909 82.8871L119.909 84.7962V46.6144C122.964 46.1053 124.818 42.1598 125.364 40.2508L122.091 41.5235H118.273V40.2508H122.091C122.527 39.2326 125.182 38.978 126.454 38.978C131.691 38.978 135.182 44.4932 136.273 47.2508L147.182 84.1598Z" fill="#EB1616"/>
<path d="M174 85.5852C177.429 88.5852 185.429 88.6209 189 88.2637V49.6923C182.143 50.1209 181.5 44.8709 182.036 42.1923C182.464 42.6209 186.857 44.5137 189 45.4066V44.3352C185.143 43.478 182.393 40.4066 181.5 38.978H177.214C178.5 43.2637 175.607 48.6209 174 50.7637V58.7995C177 61.7995 177.393 67.1923 177.214 69.5137C177.643 71.6566 175.25 81.1209 174 85.5852Z" fill="#EB1616"/>
<path d="M204 85.5852C200.571 88.5852 192.571 88.6209 189 88.2637V49.6923C195.857 50.1209 196.5 44.8709 195.964 42.1923C195.536 42.6209 191.143 44.5137 189 45.4066V44.3352C192.857 43.478 195.607 40.4066 196.5 38.978H200.786C199.5 43.2637 202.393 48.6209 204 50.7637V58.7995C201 61.7995 200.607 67.1923 200.786 69.5137C200.357 71.6566 202.75 81.1209 204 85.5852Z" fill="#EB1616"/>
<path d="M251.5 37.978C251.5 43.578 255.833 45.6447 258 45.978V89.978C256.8 90.778 253.167 88.6447 251.5 87.478C251.5 88.678 247.833 88.6447 246 88.478V71.978C246 67.978 248 58.3114 249 53.978C249.4 49.178 247.5 42.3114 246.5 39.478L251.5 37.978Z" fill="#EB1616"/>
<path d="M264.5 37.978C264.5 43.578 260.167 45.6447 258 45.978V89.978C259.2 90.778 262.833 88.6447 264.5 87.478C264.5 88.678 268.167 88.6447 270 88.478V71.978C270 67.978 268 58.3114 267 53.978C266.6 49.178 268.5 42.3114 269.5 39.478L264.5 37.978Z" fill="#EB1616"/>
<path d="M110.748 124.803C110.748 118.135 116.631 116.141 119.573 115.978V119.41C110.159 119.802 114.343 128.726 117.612 133.138L116.631 133.629L115.16 139.512L114.67 140.493C115.454 140.885 116.794 136.243 117.121 134.119H119.573V166.478H110.748C109.571 166.478 108.95 164.517 108.786 163.536V144.905C105.256 144.121 104.701 156.999 104.864 163.536H98C98 138.826 107.479 131.667 112.218 131.177C111.042 128.824 110.748 125.947 110.748 124.803Z" fill="#EB1616"/>
<path d="M128.398 124.803C128.398 118.135 122.515 116.141 119.573 115.978V119.41C128.986 119.802 124.803 128.726 121.534 133.138L122.515 133.629L123.985 139.512L124.476 140.493C123.691 140.885 122.351 136.243 122.024 134.119H119.573V166.478H128.398C129.575 166.478 130.196 164.517 130.359 163.536V144.905C133.889 144.121 134.445 156.999 134.282 163.536H141.146C141.146 138.826 131.667 131.667 126.927 131.177C128.104 128.824 128.398 125.947 128.398 124.803Z" fill="#EB1616"/>
<path d="M44.9865 163.277C43.1284 163.277 39.3007 163.723 38.8548 165.507H29.9358C31.4223 157.703 33.8379 140.98 31.6081 136.52C29.75 137.263 25.2534 143.432 22.1318 162.162C20.2737 161.605 16.4459 160.155 16 158.817L26.5912 123.142C29.75 120.912 36.4021 116.564 37.7399 117.01C38.8548 117.567 41.8649 118.682 44.9865 118.682V119.797C42.9827 119.63 39.268 119.223 38.8596 118.818L39.4122 134.29H38.2973L37.1825 119.24C35.3244 121.098 31.7196 125.037 32.1656 125.929C32.6115 126.821 36.8109 132.99 38.8548 135.963L39.4122 162.162H44.9865V163.277Z" fill="#EB1616"/>
<path d="M44.9866 163.277C46.8447 163.277 50.6724 163.723 51.1184 165.507H60.0373C58.5508 157.703 56.1353 140.98 58.365 136.52C60.2231 137.263 64.7197 143.432 67.8414 162.162C69.6995 161.605 73.5272 160.155 73.9731 158.817L63.3819 123.142C60.2231 120.912 53.5711 116.564 52.2332 117.01C51.1184 117.567 48.1082 118.682 44.9866 118.682V119.797C46.9905 119.63 50.7052 119.223 51.1135 118.818L50.5609 134.29H51.6758L52.7907 119.24C54.6488 121.098 58.2535 125.037 57.8076 125.929C57.3616 126.821 53.1623 132.99 51.1184 135.963L50.5609 162.162H44.9866V163.277Z" fill="#EB1616"/>
<path d="M245.014 135.95C250.078 134.09 252.936 141.608 257.462 142.174V159.978C257.01 160.431 246.9 161.978 242.185 161.978C238.563 161.978 237.386 161.789 235.5 160.846L235.5 156.478C230 153.478 231.245 144.437 232 142.174L234.829 139.478V137.647C232.565 129.046 232.377 122.747 232.565 120.672C232.113 117.503 233.886 116.334 234.829 116.145C237.998 114.335 242.562 127.651 245.014 135.95Z" fill="#EB1616"/>
<path d="M236.037 136.36L242.827 137.491H243.393C239.772 123.458 235.848 118.064 234.34 117.121C231.769 116.668 234.4 129.758 236.037 136.36Z" fill="white"/>
<path d="M269.448 135.95C264.384 134.09 261.527 141.608 257 142.174V159.978C257.453 160.431 267.562 161.978 272.277 161.978C275.899 161.978 277.076 161.789 278.962 160.846L278.962 156.478C284.462 153.478 283.217 144.437 282.463 142.174L279.633 139.478V137.647C281.897 129.046 282.085 122.747 281.897 120.672C282.349 117.503 280.576 116.334 279.633 116.145C276.465 114.335 271.9 127.651 269.448 135.95Z" fill="#EB1616"/>
<path d="M278.425 136.36L271.635 137.491H271.069C274.691 123.458 278.614 118.064 280.123 117.121C282.693 116.668 280.062 129.758 278.425 136.36Z" fill="white"/>
<path d="M180 139.978C183.2 142.778 190.333 142.478 193.5 141.978V124.478C190.7 120.878 185.333 117.978 183 116.978C188.6 114.578 193.667 115.978 195.5 116.978C195.1 118.178 192 119.145 190.5 119.478L195.5 123.978L195 141.978C197.4 141.578 198.667 140.478 199 139.978V126.978L201 127.978L204 150.978C206.8 151.778 209.5 150.645 210.5 149.978L204.5 118.978C203.7 115.778 200.833 114.978 199.5 114.978H180.5C177.3 114.978 174.833 117.311 174 118.478L168 148.978C168.8 150.178 172 150.811 173.5 150.978L178 127.978L179.5 127.478L180 139.978Z" fill="#EB1616"/>
<path d="M202.5 163.478C201.3 165.078 198 165.811 196.5 165.978L195 143.478C196.2 143.478 198.5 142.478 199.5 141.978L202.5 163.478Z" fill="#EB1616"/>
<path d="M189.5 143.978H193.5L194.5 165.978C186.9 166.778 179.333 164.645 176.5 163.478L180 141.978C181.2 143.178 183.833 143.811 185 143.978L183 151.478L185.5 151.978L186.5 143.978H188.5L188 148.978H190.5L189.5 143.978Z" fill="#EB1616"/>
<circle cx="191" cy="126.478" r="1.5" fill="white"/>
<circle cx="191" cy="137.478" r="1.5" fill="white"/>
<circle cx="191" cy="151.478" r="1.5" fill="white"/>
<path d="M45 5.97803L57 17.978L43.2442 18.478L32 18.978L45 5.97803Z" fill="white"/>
<path d="M35.9999 14.4782L45 5.42287L54 14.4778" stroke="#666666"/>
</g>
<rect x="11.5" y="28.978" width="67" height="67" rx="14.5" stroke="#666666"/>
<defs>
<filter id="filter0_d" x="0" y="0.273926" width="299" height="197.704" filterUnits="userSpaceOnUse" color-interpolation-filters="sRGB">
<feFlood flood-opacity="0" result="BackgroundImageFix"/>
<feColorMatrix in="SourceAlpha" type="matrix" values="0 0 0 0 0 0 0 0 0 0 0 0 0 0 0 0 0 0 127 0"/>
<feOffset/>
<feGaussianBlur stdDeviation="2"/>
<feColorMatrix type="matrix" values="0 0 0 0 0 0 0 0 0 0 0 0 0 0 0 0 0 0 0.5 0"/>
<feBlend mode="normal" in2="BackgroundImageFix" result="effect1_dropShadow"/>
<feBlend mode="normal" in="SourceGraphic" in2="effect1_dropShadow" result="shape"/>
</filter>
</defs>
</svg>
